#N canvas 506 65 574 381 12;
#X obj 56 32 inlet;
#X obj 190 32 inlet;
#X obj 282 32 inlet;
#X obj 204 213 array get \$1;
#X obj 47 331 array set \$1;
#X obj 186 331 array set \$1;
#X obj 56 57 unpack f f;
#X obj 186 306 f;
#X obj 172 147 t f f;
#X obj 308 137 loadbang;
#X msg 308 162 1;
#X text 316 196 VERY ANNOYING that I can't init the size with creation
arguments, f 27;
#X obj 47 213 array get \$1;
#X obj 282 57 s \$0-name;
#X obj 227 147 r \$0-name;
#X obj 218 248 r \$0-name;
#X obj 172 122 f;
#X obj 56 82 t b f f b;
#X connect 0 0 6 0;
#X connect 1 0 16 1;
#X connect 2 0 13 0;
#X connect 3 0 7 1;
#X connect 6 0 17 0;
#X connect 6 1 16 1;
#X connect 7 0 5 0;
#X connect 8 0 4 1;
#X connect 8 1 3 0;
#X connect 9 0 10 0;
#X connect 10 0 3 1;
#X connect 10 0 12 1;
#X connect 12 0 4 0;
#X connect 14 0 3 2;
#X connect 14 0 12 2;
#X connect 15 0 5 2;
#X connect 15 0 4 2;
#X connect 16 0 8 0;
#X connect 17 0 7 0;
#X connect 17 1 12 0;
#X connect 17 2 5 1;
#X connect 17 3 16 0;
