#N canvas 539 66 640 703 12;
#X obj 49 44 inlet;
#X obj 298 44 inlet;
#X obj 347 44 inlet;
#N canvas 475 283 450 521 args 0;
#X obj 80 53 loadbang;
#X msg 80 78 args 0;
#X obj 80 103 pdcontrol;
#X obj 80 153 outlet;
#X obj 80 128 pack 1 0.25 0;
#X connect 0 0 1 0;
#X connect 1 0 2 0;
#X connect 2 0 4 0;
#X connect 4 0 3 0;
#X restore 464 44 pd args;
#X obj 49 444 list prepend tempo;
#X obj 49 469 list trim;
#X obj 246 256 + 1, f 8;
#X obj 304 231 t f f;
#X obj 200 142 f;
#X obj 218 44 r \$0next;
#X obj 246 281 s \$0next;
#X obj 269 339 +;
#X msg 200 281 0;
#X obj 200 231 t b f f;
#X obj 200 444 +;
#X obj 200 339 f;
#X obj 200 364 t f f;
#X obj 200 410 moses, f 10;
#X msg 267 444 bang;
#X obj 267 469 outlet;
#X obj 200 469 t f b;
#X obj 232 511 delay, f 14;
#X obj 232 536 s \$0retrig;
#X obj 110 281 r \$0retrig;
#X obj 200 570 outlet;
#X obj 408 231 t f f;
#X obj 200 94 unpack f f f;
#X obj 464 69 unpack f f f;
#X obj 336 339 -;
#X obj 200 181 pack f f f f, f 30;
#X obj 200 206 unpack f f f f, f 45;
#X obj 407 44 inlet;
#X obj 49 69 route tempo bang, f 22;
#X connect 0 0 32 0;
#X connect 1 0 29 1;
#X connect 2 0 29 2;
#X connect 3 0 27 0;
#X connect 4 0 5 0;
#X connect 5 0 21 0;
#X connect 6 0 10 0;
#X connect 7 0 6 1;
#X connect 7 1 28 0;
#X connect 8 0 29 0;
#X connect 9 0 8 1;
#X connect 11 0 15 1;
#X connect 12 0 15 0;
#X connect 13 0 12 0;
#X connect 13 1 14 1;
#X connect 13 2 6 0;
#X connect 14 0 20 0;
#X connect 15 0 16 0;
#X connect 16 0 17 0;
#X connect 16 1 11 0;
#X connect 17 0 14 0;
#X connect 17 1 18 0;
#X connect 18 0 19 0;
#X connect 20 0 24 0;
#X connect 20 1 21 0;
#X connect 21 0 22 0;
#X connect 23 0 15 0;
#X connect 25 0 11 1;
#X connect 25 1 21 1;
#X connect 26 0 8 0;
#X connect 26 1 29 1;
#X connect 26 2 29 2;
#X connect 27 0 29 1;
#X connect 27 1 29 2;
#X connect 27 2 29 3;
#X connect 28 0 17 1;
#X connect 29 0 30 0;
#X connect 30 0 13 0;
#X connect 30 1 7 0;
#X connect 30 2 25 0;
#X connect 30 3 28 1;
#X connect 31 0 29 3;
#X connect 32 0 4 0;
#X connect 32 1 8 0;
#X connect 32 2 26 0;
