#N canvas 567 86 591 671 12;
#X text 22 583 reset \; bang (get next data \, time value to right)
\; loop 0/1 \; forward;
#X obj 111 44 inlet msg;
#X obj 338 44 inlet seqname;
#X obj 338 69 symbol \$1;
#X obj 338 94 makefilename %s;
#X msg 338 119 symbol \$1;
#X obj 111 278 text sequence;
#X obj 111 69 route bang reset loop;
#X msg 111 94 step;
#X obj 314 14 loadbang;
#X obj 338 144 t b a;
#X msg 159 239 line 0;
#X obj 199 303 t b b;
#X obj 255 278 spigot 0;
#X obj 42 223 r \$0-msg;
#X obj 111 303 t a a;
#X obj 322 525 outlet endbang;
#X obj 229 525 outlet delta;
#X obj 143 525 outlet data;
#X obj 64 525 outlet raw;
#N canvas 677 86 658 614 routeseq 0;
#X obj 202 45 inlet list;
#X obj 355 45 inlet state;
#X text 443 45 0 first \, 1 normal;
#X obj 226 113 list prepend;
#X obj 545 124 loadbang;
#X msg 545 149 0;
#X obj 226 138 route 0 1;
#X obj 111 211 list split 1;
#X obj 377 404 list;
#X text 413 404 for next output;
#X obj 356 80 r \$0-state;
#X text 111 450 open output gate \; re-bang;
#X obj 354 211 list split 1;
#X obj 436 344 list;
#X text 472 344 yes \, need 2 registers;
#X obj 394 236 route bang;
#X obj 486 286 outlet endbang;
#X obj 354 261 t b b f;
#X obj 400 286 outlet time;
#X obj 377 429 outlet data;
#X obj 151 236 route bang;
#X obj 111 329 t b b;
#X msg 143 354 1;
#X obj 143 379 s \$0-state;
#X msg 111 404 step;
#X obj 111 429 s \$0-msg;
#X obj 545 174 s \$0-state;
#X obj 111 179 t a a;
#X obj 291 211 list;
#X obj 291 176 t a b a;
#X obj 291 429 outlet raw;
#X connect 0 0 3 0;
#X connect 1 0 3 1;
#X connect 3 0 6 0;
#X connect 4 0 5 0;
#X connect 5 0 26 0;
#X connect 6 0 27 0;
#X connect 6 1 29 0;
#X connect 7 0 21 0;
#X connect 7 1 20 0;
#X connect 8 0 19 0;
#X connect 10 0 3 1;
#X connect 12 0 17 0;
#X connect 12 1 15 0;
#X connect 13 0 8 1;
#X connect 15 1 13 1;
#X connect 17 0 13 0;
#X connect 17 1 8 0;
#X connect 17 2 18 0;
#X connect 20 1 8 1;
#X connect 21 0 24 0;
#X connect 21 1 22 0;
#X connect 22 0 23 0;
#X connect 24 0 25 0;
#X connect 27 0 7 0;
#X connect 27 1 28 1;
#X connect 28 0 30 0;
#X connect 29 0 28 1;
#X connect 29 1 28 0;
#X connect 29 2 12 0;
#X restore 143 369 pd routeseq;
#X obj 159 94 t b b;
#X obj 229 336 r \$0-resetstate;
#X msg 352 206 0;
#X obj 352 231 s \$0-resetstate;
#X obj 357 336 t b b;
#X msg 407 336 0;
#X obj 407 361 s \$0-resetstate;
#X msg 357 386 line 0 \, step;
#X obj 357 411 s \$0-msg;
#X connect 1 0 7 0;
#X connect 2 0 3 0;
#X connect 3 0 4 0;
#X connect 4 0 5 0;
#X connect 5 0 10 0;
#X connect 6 0 15 0;
#X connect 6 1 12 0;
#X connect 7 0 8 0;
#X connect 7 1 21 0;
#X connect 7 2 13 1;
#X connect 7 3 6 0;
#X connect 8 0 6 0;
#X connect 9 0 3 0;
#X connect 10 0 11 0;
#X connect 10 1 6 1;
#X connect 11 0 6 0;
#X connect 12 0 16 0;
#X connect 12 1 13 0;
#X connect 13 0 25 0;
#X connect 14 0 6 0;
#X connect 15 1 20 0;
#X connect 20 0 19 0;
#X connect 20 1 18 0;
#X connect 20 2 17 0;
#X connect 20 3 12 0;
#X connect 21 0 11 0;
#X connect 21 1 23 0;
#X connect 22 0 20 1;
#X connect 23 0 24 0;
#X connect 25 0 28 0;
#X connect 25 1 26 0;
#X connect 26 0 27 0;
#X connect 28 0 29 0;
