#N canvas 612 154 534 559 12;
#X obj 192 123 hsl 128 15 1 10000 1 1 empty empty attack -2 -8 0 10
-262144 -1 -1 0 1;
#X obj 192 157 hsl 128 15 1 10000 1 1 empty empty decay -2 -8 0 10
-262144 -1 -1 0 1;
#X obj 192 192 hsl 128 15 0 1 0 1 empty empty sustain_(level) -2 -8
0 10 -262144 -1 -1 0 1;
#X obj 192 226 hsl 128 15 1 10000 1 1 empty empty release -2 -8 0 10
-262144 -1 -1 0 1;
#X obj 255 35 inlet a;
#X obj 310 35 inlet d;
#X obj 365 35 inlet s;
#X obj 420 35 inlet r;
#X obj 73 199 f;
#X obj 27 35 inlet gate;
#X obj 27 79 moses 1;
#X msg 73 115 bang;
#X obj 116 409 vline~;
#X obj 116 434 outlet~;
#X obj 255 60 f \$1;
#X obj 310 60 f \$2;
#X obj 365 60 f \$3;
#X obj 420 60 f \$4;
#X obj 352 100 loadbang;
#X msg 59 364 1 \$1 \, \$3 \$2 \$1;
#X msg 171 364 0 \$1;
#X msg 27 199 bang;
#X obj 171 292 f;
#X obj 73 325 pack 0 0 0;
#X connect 0 0 8 1;
#X connect 1 0 23 1;
#X connect 2 0 23 2;
#X connect 3 0 22 1;
#X connect 4 0 14 0;
#X connect 5 0 15 0;
#X connect 6 0 16 0;
#X connect 7 0 17 0;
#X connect 8 0 23 0;
#X connect 9 0 10 0;
#X connect 10 0 21 0;
#X connect 10 1 11 0;
#X connect 11 0 8 0;
#X connect 12 0 13 0;
#X connect 14 0 0 0;
#X connect 15 0 1 0;
#X connect 16 0 2 0;
#X connect 17 0 3 0;
#X connect 18 0 17 0;
#X connect 18 0 16 0;
#X connect 18 0 15 0;
#X connect 18 0 14 0;
#X connect 19 0 12 0;
#X connect 20 0 12 0;
#X connect 21 0 22 0;
#X connect 22 0 20 0;
#X connect 23 0 19 0;
#X coords 0 -1 1 1 151 164 1 180 88;
