#N canvas 577 129 593 516 12;
#X obj 68 47 inlet~;
#X text 121 47 sig to modulate;
#X obj 245 47 inlet~;
#X text 297 39 normalized modulator, f 12;
#X obj 403 47 inlet;
#X text 451 47 width;
#X obj 432 92 loadbang;
#X obj 403 141 f \$1;
#X obj 68 320 *~;
#X obj 68 345 outlet~;
#X obj 403 166 + 1;
#X obj 403 191 sig~;
#X obj 221 266 pow~;
#X connect 0 0 8 0;
#X connect 2 0 12 1;
#X connect 4 0 7 0;
#X connect 6 0 7 0;
#X connect 7 0 10 0;
#X connect 8 0 9 0;
#X connect 10 0 11 0;
#X connect 11 0 12 0;
#X connect 12 0 8 1;
