#N canvas 466 90 450 438 12;
#X obj 52 91 inlet~;
#X obj 144 91 inlet~;
#X obj 329 91 inlet;
#N canvas 0 0 450 300 args 0;
#X obj 77 34 loadbang;
#X msg 77 59 args 0;
#X obj 77 84 pdcontrol;
#X msg 77 134 symbol main;
#X obj 77 109 route bang, f 19;
#X obj 77 219 outlet;
#X connect 0 0 1 0;
#X connect 1 0 2 0;
#X connect 2 0 4 0;
#X connect 3 0 5 0;
#X connect 4 0 3 0;
#X connect 4 1 5 0;
#X restore 288 54 pd args;
#X obj 288 126 t a a;
#X obj 52 347 throw~;
#X obj 144 347 throw~;
#X msg 288 151 set \$1-auxL;
#X msg 320 176 set \$1-auxR;
#X obj 144 41 loadbang;
#X msg 144 66 1e+30;
#N canvas 0 0 450 300 comparator 0;
#X obj 74 47 inlet~;
#X obj 74 97 clip~ 0 1;
#X text 189 48 this logic is not airtight \; but it's extremely unlikely
to have a signal between 1e+30 - 2 and 1e+30, f 33;
#X obj 132 146 *~ -1;
#X obj 132 171 +~ 1;
#X obj 74 196 outlet~;
#X obj 132 196 outlet~;
#X obj 74 72 -~ 9.99999e+29;
#X connect 0 0 7 0;
#X connect 1 0 5 0;
#X connect 1 0 3 0;
#X connect 3 0 4 0;
#X connect 4 0 6 0;
#X connect 7 0 1 0;
#X restore 170 126 pd comparator;
#X obj 94 229 *~;
#X obj 144 229 *~;
#X connect 0 0 5 0;
#X connect 0 0 12 0;
#X connect 1 0 11 0;
#X connect 1 0 13 0;
#X connect 2 0 4 0;
#X connect 3 0 4 0;
#X connect 4 0 7 0;
#X connect 4 1 8 0;
#X connect 7 0 5 0;
#X connect 8 0 6 0;
#X connect 9 0 10 0;
#X connect 10 0 1 0;
#X connect 11 0 12 1;
#X connect 11 1 13 1;
#X connect 12 0 6 0;
#X connect 13 0 6 0;
