#N canvas 513 56 785 626 12;
#X declare -path hjh-abs -path iemguts;
#X obj 102 117 vsl 15 128 0 1 0 0 empty \$0-vol empty 0 -9 0 10 #fcfcfc
#000000 #000000 0 1;
#N canvas 62 55 450 590 mapvol 0;
#X obj 88 18 inlet;
#X obj 88 539 outlet;
#X obj 88 289 lincurve 0 1 0 2 3;
#X obj 88 314 t f f, f 23;
#X obj 88 339 rmstodb;
#X obj 88 364 - 100;
#X obj 246 389 outlet;
#X obj 88 414 * 100;
#X obj 88 464 int;
#X obj 88 489 * 0.01;
#X obj 185 18 r \$0-muteR;
#X msg 372 289 0;
#X obj 88 189 f;
#X text 280 22 turn mute off \, bang old volume, f 17;
#X obj 141 160 select 0 1;
#X obj 141 18 inlet;
#X obj 185 102 t f f f, f 10;
#X obj 282 156 * 3;
#X obj 282 181 pack 0 \$0;
#X msg 282 206 \; \$2-muteR color \$1;
#X obj 185 59 route float;
#X obj 88 389 t f f, f 8;
#X obj 141 414 s \$0-volSave;
#X msg 88 514 set \$1;
#X obj 88 439 - 0.5;
#X text 133 439 looks odd but \, if it's +0.5 \, display ends up 0.01
too high, f 37;
#X obj 246 339 spigot 1;
#X msg 299 289 1 \$1;
#X obj 299 314 -;
#X text 315 345 0 = unmuted = passthrough, f 14;
#X connect 0 0 12 0;
#X connect 2 0 3 0;
#X connect 3 0 4 0;
#X connect 3 1 26 0;
#X connect 4 0 5 0;
#X connect 5 0 21 0;
#X connect 7 0 24 0;
#X connect 8 0 9 0;
#X connect 9 0 23 0;
#X connect 10 0 20 0;
#X connect 11 0 6 0;
#X connect 12 0 2 0;
#X connect 14 0 12 0;
#X connect 14 1 11 0;
#X connect 15 0 20 0;
#X connect 16 0 14 0;
#X connect 16 1 27 0;
#X connect 16 2 17 0;
#X connect 17 0 18 0;
#X connect 18 0 19 0;
#X connect 20 0 16 0;
#X connect 21 0 7 0;
#X connect 21 1 22 0;
#X connect 23 0 1 0;
#X connect 24 0 8 0;
#X connect 26 0 6 0;
#X connect 27 0 28 0;
#X connect 28 0 26 1;
#X restore 157 342 pd mapvol;
#X floatatom 217 367 5 0 0 0 - - - 0;
#X floatatom 85 253 7 0 0 0 - - \$0-volRestore 0;
#X msg 217 391 \$1 40;
#X obj 217 416 line~;
#X symbolatom 72 67 10 0 0 0 - \$0-nameR \$0-nameS 0;
#X obj 74 93 hsl 70 15 -1 1 0 0 empty \$0-pan empty -2 -8 0 10 #fcfcfc
#000000 #000000 0 1;
#X obj 105 466 *~;
#X obj 171 466 *~;
#N canvas 0 0 450 427 pan 0;
#X obj 77 33 inlet;
#X msg 77 133 \$1 40;
#X obj 77 158 line~;
#X obj 77 83 * 0.5;
#X obj 77 108 + 0.5;
#X obj 77 226 *~ -1;
#X obj 77 251 +~ 1;
#X obj 77 276 sqrt~;
#X obj 179 276 sqrt~;
#X obj 77 58 clip -1 1;
#X obj 179 301 outlet~;
#X obj 77 301 outlet~;
#X connect 0 0 9 0;
#X connect 1 0 2 0;
#X connect 2 0 5 0;
#X connect 2 0 8 0;
#X connect 3 0 4 0;
#X connect 4 0 1 0;
#X connect 5 0 6 0;
#X connect 6 0 7 0;
#X connect 7 0 11 0;
#X connect 8 0 10 0;
#X connect 9 0 3 0;
#X restore 71 416 pd pan;
#X obj 312 416 +~;
#X obj 459 142 inlet~;
#X obj 441 416 +~;
#X obj 191 534 *~;
#X obj 255 534 *~;
#X obj 255 583 outlet~;
#X obj 191 583 outlet~;
#X obj 312 89 r \$0-auxL;
#X obj 441 89 r \$0-auxR;
#X obj 350 416 r \$0-preL;
#X obj 479 416 r \$0-preR;
#X obj 317 534 r \$0-postL;
#X obj 414 534 r \$0-postR;
#N canvas 336 77 706 580 setname 0;
#X obj 37 240 r \$0-nameS;
#X obj 37 308 pack s \$0;
#X obj 261 240 r \$0-outnameS;
#X obj 482 368 pack s \$0;
#X obj 261 308 select x, f 32;
#X obj 37 265 t a a;
#X obj 261 368 f \$0;
#N canvas 0 0 450 414 args 0;
#X obj 46 24 loadbang;
#X msg 145 133 args 0;
#X obj 145 158 pdcontrol;
#X obj 145 183 unpack s s;
#X msg 344 133 symbol main;
#X msg 244 133 symbol null;
#X obj 46 241 symbol, f 23;
#X obj 46 108 t b b b b, f 43;
#X obj 46 266 pack s s, f 36;
#X obj 46 291 outlet;
#X text 113 298 reverse the argument order: force in-name to come out
the right \, so that it sets the 'select' box first, f 43;
#X obj 46 49 spigot 1, f 12;
#X obj 127 24 r \$0-useArgs;
#X connect 0 0 11 0;
#X connect 1 0 2 0;
#X connect 2 0 3 0;
#X connect 3 0 8 1;
#X connect 3 1 6 1;
#X connect 4 0 6 1;
#X connect 5 0 8 1;
#X connect 6 0 8 0;
#X connect 7 0 6 0;
#X connect 7 1 1 0;
#X connect 7 2 5 0;
#X connect 7 3 4 0;
#X connect 8 0 9 0;
#X connect 11 0 7 0;
#X connect 12 0 11 1;
#X restore 41 33 pd args;
#X obj 41 58 unpack s s, f 15;
#X obj 143 83 s \$0-nameS;
#X obj 41 83 s \$0-outnameS;
#X msg 261 393 \; \$1-outL set dummy\$1 \; \$1-outR set dummy\$1 \;
\$1-outnameR set .null.;
#X msg 482 393 \; \$2-outnameR set \$1 \; \$2-outL set \$1-auxL \;
\$2-outR set \$1-auxR;
#X msg 37 333 \; \$2-nameR set \$1 \; \$2-postL set \$1-postL \; \$2-postR
set \$1-postR \; \$2-preL set \$1-preL \; \$2-preR set \$1-preR \;
\$2-auxL \$1-auxL \; \$2-auxR \$1-auxR;
#X connect 0 0 5 0;
#X connect 1 0 13 0;
#X connect 2 0 4 0;
#X connect 3 0 12 0;
#X connect 4 0 6 0;
#X connect 4 1 3 0;
#X connect 5 0 1 0;
#X connect 5 1 4 1;
#X connect 6 0 11 0;
#X connect 7 0 8 0;
#X connect 8 0 10 0;
#X connect 8 1 9 0;
#X restore 75 20 pd setname;
#X obj 598 89 inlet;
#N canvas 0 0 450 300 init 0;
#X obj 76 22 loadbang;
#X obj 76 47 pack \$0 0 0.785147;
#X msg 76 72 \; \$1-pan \$2 \; \$1-vol \$3;
#X connect 0 0 1 0;
#X connect 1 0 2 0;
#X restore 184 20 pd init;
#X obj 598 189 s \$0-vol;
#X obj 676 89 inlet;
#X obj 676 114 s \$0-pan;
#N canvas 0 0 476 452 savestate 0;
#X obj 216 52 inlet;
#X obj 304 52 inlet;
#X obj 177 111 symbol;
#X obj 72 179 savestate;
#X obj 72 279 list prepend \$0;
#X obj 72 304 list trim;
#X obj 72 254 list, f 11;
#X obj 72 229 delay 10;
#X obj 311 105 r \$0-outnameS;
#X obj 356 52 inlet;
#X obj 177 136 pack s 0 0 s 0, f 26;
#X text 360 31 mute;
#X text 187 306 should do mute state before volume;
#X obj 72 204 t b a b, f 21;
#X obj 216 229 f \$0;
#X msg 216 254 \; \$1-useArgs 0;
#X text 221 31 name pan;
#X obj 269 12 r \$0-volSave;
#X msg 72 329 \; \$1-nameR symbol \$2 \; \$1-muteR \$6 \; \$1-volRestore
\$3 \; \$1-pan \$4 \; \$1-outnameR symbol \$5;
#X connect 0 0 2 1;
#X connect 1 0 10 2;
#X connect 2 0 10 0;
#X connect 3 0 13 0;
#X connect 3 1 2 0;
#X connect 4 0 5 0;
#X connect 5 0 18 0;
#X connect 6 0 4 0;
#X connect 7 0 6 0;
#X connect 8 0 10 3;
#X connect 9 0 10 4;
#X connect 10 0 3 0;
#X connect 13 0 7 0;
#X connect 13 1 6 1;
#X connect 13 2 14 0;
#X connect 14 0 15 0;
#X connect 17 0 10 1;
#X restore 188 271 pd savestate;
#X obj 188 159 r \$0-nameS;
#X symbolatom 72 279 10 0 0 0 - \$0-outnameR \$0-outnameS 0;
#X text 117 135 -0dB;
#X obj 128 163 bng 15 250 50 0 empty \$0-ctrR ctr 0 22 0 10 #fcfcfc
#000000 #000000;
#X obj 212 74 f \$0;
#X msg 212 99 \; \$1-pan 0;
#X obj 513 534 r \$0-outL;
#X obj 610 534 r \$0-outR;
#X obj 128 208 tgl 15 0 empty \$0-muteR mute -4 22 0 10 #fce0e0 #000000
#000000 0 1;
#X obj 77 117 vu 15 120 \$0-meterR empty -1 -8 0 10 #404040 #000000
0 0;
#N canvas 0 0 450 357 meter 0;
#X obj 67 37 inlet~;
#X obj 148 86 abs~;
#X obj 148 136 slop~ 0 0 12 0 1e+09;
#X obj 67 111 t f b;
#X obj 148 161 snapshot~;
#X obj 67 211 - 100;
#X obj 67 236 pack 0 0, f 12;
#X obj 67 261 s \$0-meterR;
#X obj 148 186 rmstodb;
#X obj 148 211 - 100;
#X obj 67 86 env~ 8192;
#X connect 0 0 1 0;
#X connect 0 0 10 0;
#X connect 1 0 2 0;
#X connect 2 0 4 0;
#X connect 3 0 5 0;
#X connect 3 1 4 0;
#X connect 4 0 8 0;
#X connect 5 0 6 0;
#X connect 6 0 7 0;
#X connect 8 0 9 0;
#X connect 9 0 6 1;
#X connect 10 0 3 0;
#X restore 106 583 pd meter;
#X obj 598 164 curvelin 0 2 0 1 3;
#X obj 598 139 dbtorms;
#X obj 330 142 inlet~ fwd;
#N canvas 0 0 515 352 fwd 0;
#X obj 76 27 inlet;
#X obj 76 102 route mute ctr name target, f 42;
#X obj 76 52 list append \$0;
#X obj 76 77 list trim;
#X text 213 32 all should be selector arg \; no long messages;
#X obj 294 127 list;
#X obj 221 127 list;
#X obj 148 127 list;
#X obj 76 127 list;
#X msg 148 232 \; \$1-ctrR bang;
#X msg 76 272 \; \$2-muteR \$1;
#X msg 294 152 \; \$2-outnameR symbol \$1;
#X msg 221 192 \; \$2-nameR symbol \$1;
#X connect 0 0 2 0;
#X connect 1 0 8 0;
#X connect 1 1 7 0;
#X connect 1 2 6 0;
#X connect 1 3 5 0;
#X connect 2 0 3 0;
#X connect 3 0 1 0;
#X connect 5 0 11 0;
#X connect 6 0 12 0;
#X connect 7 0 9 0;
#X connect 8 0 10 0;
#X restore 358 182 pd fwd;
#X obj 312 114 dcatch/dcatch~;
#X obj 441 114 dcatch/dcatch~;
#X text 537 491 throw~: temporary names \, will be overridden during
init, f 30;
#X obj 288 20 declare -path hjh-abs -path iemguts;
#X obj 338 464 dcatch/dsend~;
#X obj 317 584 dcatch/dsend~;
#X obj 414 583 dcatch/dsend~;
#X obj 442 464 dcatch/dsend~;
#X obj 513 583 throw~ \$0-a;
#X obj 610 583 throw~ \$0-b;
#X obj 598 114 + 100;
#X obj 567 59 r \$0-volRestore;
#X connect 0 0 1 0;
#X connect 1 0 3 0;
#X connect 1 1 2 0;
#X connect 2 0 4 0;
#X connect 4 0 5 0;
#X connect 5 0 9 1;
#X connect 5 0 8 1;
#X connect 7 0 10 0;
#X connect 7 0 30 1;
#X connect 8 0 14 0;
#X connect 9 0 15 0;
#X connect 10 0 8 0;
#X connect 10 1 9 0;
#X connect 11 0 14 1;
#X connect 11 0 50 0;
#X connect 12 0 13 1;
#X connect 13 0 15 1;
#X connect 13 0 53 0;
#X connect 14 0 17 0;
#X connect 14 0 41 0;
#X connect 14 0 51 0;
#X connect 14 0 54 0;
#X connect 15 0 16 0;
#X connect 15 0 41 0;
#X connect 15 0 52 0;
#X connect 15 0 55 0;
#X connect 18 0 46 0;
#X connect 19 0 47 0;
#X connect 20 0 50 0;
#X connect 21 0 53 0;
#X connect 22 0 51 0;
#X connect 23 0 52 0;
#X connect 25 0 56 0;
#X connect 28 0 29 0;
#X connect 31 0 30 0;
#X connect 34 0 35 0;
#X connect 35 0 36 0;
#X connect 37 0 54 0;
#X connect 38 0 55 0;
#X connect 39 0 30 2;
#X connect 39 0 1 1;
#X connect 42 0 27 0;
#X connect 43 0 42 0;
#X connect 44 0 11 1;
#X connect 44 1 45 0;
#X connect 46 0 11 0;
#X connect 47 0 13 0;
#X connect 56 0 43 0;
#X connect 57 0 56 0;
#X coords 0 -1 1 1 94 252 2 61 56;
