#N canvas 607 73 632 474 12;
#X declare -path else;
#X obj 60 21 declare -path else;
#X obj 60 170 inlet~;
#X obj 177 170 inlet~;
#X obj 337 170 inlet~;
#X obj 415 170 inlet~;
#X obj 60 305 resonant~;
#X obj 177 195 clip~ 20 20000;
#X obj 169 305 resonant~;
#X obj 60 330 *~ -1;
#X obj 60 395 outlet~;
#X obj 337 195 max~ 1;
#X obj 415 195 max~ 1;
#X obj 206 21 loadbang;
#X msg 206 46 args 0;
#X obj 206 71 pdcontrol;
#X obj 206 96 pack 440 1 100;
#X text 319 96 make sure all args + defaults are sent;
#X obj 206 121 unpack 440 1 100;
#X connect 1 0 5 0;
#X connect 1 0 7 0;
#X connect 2 0 6 0;
#X connect 3 0 10 0;
#X connect 4 0 11 0;
#X connect 5 0 8 0;
#X connect 6 0 5 1;
#X connect 6 0 7 1;
#X connect 7 0 9 0;
#X connect 8 0 9 0;
#X connect 10 0 5 2;
#X connect 11 0 7 2;
#X connect 12 0 13 0;
#X connect 13 0 14 0;
#X connect 14 0 15 0;
#X connect 15 0 17 0;
#X connect 17 0 2 0;
#X connect 17 1 3 0;
#X connect 17 2 4 0;
