#N canvas 461 169 450 561 12;
#X obj 31 116 select 0 1;
#X obj 31 50 tgl 22 0 empty empty empty 17 7 0 10 -262144 -1 -1 1 1
;
#X msg 31 265 0 \, destroy;
#X obj 340 334 gemwin;
#X obj 58 50 tgl 22 0 empty empty empty 17 7 0 10 -262144 -1 -1 0 1
;
#X msg 182 146 lighting \$1;
#X obj 273 146 inlet;
#X obj 340 364 outlet;
#X msg 64 146 create \, 1 \, FSAA;
#X obj 64 171 route FSAA;
#X obj 64 196 spigot;
#X msg 64 221 FSAA;
#N canvas 2 93 450 300 FSAAarg 0;
#X obj 55 33 loadbang;
#X obj 55 83 pdcontrol;
#X msg 55 58 args;
#X obj 55 108 route bang;
#X msg 55 133 1;
#X obj 122 220 outlet;
#X connect 0 0 2 0;
#X connect 1 0 3 0;
#X connect 2 0 1 0;
#X connect 3 0 4 0;
#X connect 3 1 5 0;
#X connect 4 0 5 0;
#X restore 182 42 pd FSAAarg;
#X obj 273 171 route FSAA;
#X obj 273 196 select 1 0;
#X connect 0 0 2 0;
#X connect 0 1 8 0;
#X connect 1 0 0 0;
#X connect 2 0 3 0;
#X connect 3 0 7 0;
#X connect 4 0 5 0;
#X connect 5 0 3 0;
#X connect 6 0 13 0;
#X connect 8 0 9 0;
#X connect 9 0 10 0;
#X connect 9 1 3 0;
#X connect 10 0 11 0;
#X connect 11 0 3 0;
#X connect 12 0 10 1;
#X connect 13 0 14 0;
#X connect 13 1 3 0;
#X coords 0 -1 1 1 60 60 1 25 23;
