#N canvas 586 133 486 386 12;
#X obj 51 63 inlet;
#X obj 51 88 route bang;
#X obj 185 311 print ERROR;
#X obj 272 63 inlet;
#X obj 272 88 symbol \$1;
#X obj 242 38 loadbang;
#X obj 272 113 t a a;
#X obj 51 261 value;
#X obj 51 286 outlet;
#X obj 118 113 t b a, f 10;
#X obj 118 286 outlet;
#X obj 185 261 list prepend;
#X msg 185 286 Non-bang \$2 sent to read-only value \$1;
#X connect 0 0 1 0;
#X connect 1 0 7 0;
#X connect 1 1 9 0;
#X connect 3 0 4 0;
#X connect 4 0 6 0;
#X connect 5 0 4 0;
#X connect 6 0 7 1;
#X connect 6 1 11 1;
#X connect 7 0 8 0;
#X connect 9 0 10 0;
#X connect 9 1 11 0;
#X connect 11 0 12 0;
#X connect 12 0 2 0;
