#N canvas 518 29 746 648 12;
#X obj 46 43 inlet;
#X obj 479 43 text define \$0-t;
#N canvas 430 29 613 622 push 0;
#X obj 49 45 inlet;
#X text 105 45 list: time msg;
#X obj 49 70 list trim;
#X text 266 14 1 search for -1 \; 2 If not found \, get text size for
index \; 3 Text set with full list passed in \; 4 Return time + index
;
#X obj 249 145 text search \$0-t;
#X obj 249 170 select -1, f 16;
#X msg 249 120 -1;
#X text 285 120 "-1" = empty line tag;
#X text 374 170 "-1" = search failed result;
#X obj 249 195 text size \$0-t;
#X obj 149 341 text set \$0-t;
#X obj 49 438 pack f f, f 16;
#X obj 49 463 outlet;
#X obj 49 95 t a a b, f 29;
#X obj 292 283 t f f;
#X obj 49 413 unpack f;
#X connect 0 0 2 0;
#X connect 2 0 13 0;
#X connect 4 0 5 0;
#X connect 5 0 9 0;
#X connect 5 1 14 0;
#X connect 6 0 4 0;
#X connect 9 0 14 0;
#X connect 11 0 12 0;
#X connect 13 0 15 0;
#X connect 13 1 10 0;
#X connect 13 2 6 0;
#X connect 14 0 10 1;
#X connect 14 1 11 1;
#X connect 15 0 11 0;
#X restore 46 93 pd push;
#X msg 46 118 push \$1 \$2;
#X obj 136 222 float-heap, f 41;
#X msg 136 118 pop;
#X obj 46 68 route push pop top topPrio clear debug, f 78;
#X obj 136 276 list prepend;
#X obj 136 326 route pop top topPrio, f 40;
#X obj 136 143 t a a;
#X obj 317 118 t b b;
#X msg 227 118 top;
#X msg 317 143 top;
#X msg 349 143 topPrio;
#X obj 320 351 unpack f;
#X obj 136 548 outlet;
#N canvas 428 47 450 380 getMsg 0;
#X obj 28 35 inlet;
#X text 83 35 text index \, flag 1 = delete \, 0 = don't;
#X obj 28 60 unpack f 1, f 24;
#X obj 140 225 spigot 1;
#X obj 74 110 text get \$0-t;
#X obj 28 225 list, f 7;
#X obj 28 85 t b f f;
#X obj 140 250 t b f;
#X obj 140 300 text set \$0-t;
#X msg 140 275 -1;
#X obj 28 250 outlet;
#X connect 0 0 2 0;
#X connect 2 0 6 0;
#X connect 2 1 3 1;
#X connect 3 0 7 0;
#X connect 4 0 5 1;
#X connect 5 0 10 0;
#X connect 6 0 5 0;
#X connect 6 1 3 0;
#X connect 6 2 4 0;
#X connect 7 0 9 0;
#X connect 7 1 8 1;
#X connect 9 0 8 0;
#X restore 136 442 pd getMsg;
#X obj 136 351 unpack f f;
#X msg 136 393 \$1 1;
#X obj 408 118 t b b, f 7;
#X msg 454 184 -1;
#X obj 454 209 text delete \$0-t;
#X msg 408 143 clear;
#X msg 498 143 debug;
#X obj 420 247 outlet;
#X text 418 268 bang on EOF;
#X obj 136 301 list trim;
#X text 244 470 Usual pd problem: The single stateful object float-heap
has only one output path \, but I need to query it from 3 different
contexts. Prepend-route "works" but text programming is always going
to be better at this. \; \; Never mind \, I'm just complaining.;
#N canvas 198 171 485 436 topcache 1;
#X obj 42 33 inlet;
#X obj 42 297 list store;
#X obj 42 322 route bang;
#X obj 42 387 outlet;
#X obj 109 387 outlet;
#X msg 42 58 bang;
#X obj 126 33 r \$0-updatecache;
#X obj 126 83 value \$0-size;
#X obj 126 108 moses 2;
#X msg 126 133 bang;
#X obj 126 58 t b a, f 17;
#X obj 172 170 list store;
#X msg 172 132 bang;
#X obj 172 195 unpack f f;
#X obj 239 220 text get \$0-t;
#X obj 239 245 route -1;
#X obj 239 291 t b a;
#X obj 271 316 print hjh-prioqueue-heap referred to empty line, f
24;
#X text 271 356 this should never happen;
#X text 172 220 unused;
#X obj 299 103 print updatecache;
#X obj 330 273 print saved cache;
#X connect 0 0 5 0;
#X connect 1 0 2 0;
#X connect 2 0 4 0;
#X connect 2 1 3 0;
#X connect 5 0 1 0;
#X connect 6 0 20 0;
#X connect 6 0 10 0;
#X connect 7 0 8 0;
#X connect 8 0 9 0;
#X connect 8 1 12 0;
#X connect 9 0 1 1;
#X connect 10 0 7 0;
#X connect 10 1 11 1;
#X connect 11 0 13 0;
#X connect 12 0 11 0;
#X connect 13 1 14 0;
#X connect 14 0 15 0;
#X connect 15 0 16 0;
#X connect 15 1 21 0;
#X connect 15 1 1 1;
#X connect 16 0 1 1;
#X connect 16 1 17 0;
#X restore 227 143 pd topcache;
#X obj 278 247 s \$0-updatecache;
#X obj 227 168 s \$0-out;
#X obj 59 491 r \$0-out;
#X text 267 268 this should happen automatically for every "top" change
, f 20;
#X connect 0 0 6 0;
#X connect 2 0 3 0;
#X connect 3 0 4 0;
#X connect 4 0 7 0;
#X connect 4 1 29 0;
#X connect 4 2 24 0;
#X connect 5 0 9 0;
#X connect 6 0 2 0;
#X connect 6 1 5 0;
#X connect 6 2 11 0;
#X connect 6 3 10 0;
#X connect 6 4 19 0;
#X connect 6 5 23 0;
#X connect 7 0 26 0;
#X connect 8 0 17 0;
#X connect 8 2 14 0;
#X connect 9 0 4 0;
#X connect 9 1 7 1;
#X connect 10 0 12 0;
#X connect 10 1 13 0;
#X connect 11 0 28 0;
#X connect 12 0 4 0;
#X connect 13 0 7 1;
#X connect 14 0 15 0;
#X connect 16 0 15 0;
#X connect 17 1 18 0;
#X connect 18 0 16 0;
#X connect 19 0 22 0;
#X connect 19 1 20 0;
#X connect 20 0 21 0;
#X connect 22 0 4 0;
#X connect 23 0 4 0;
#X connect 26 0 8 0;
#X connect 28 0 30 0;
#X connect 28 1 24 0;
#X connect 31 0 15 0;
