#N canvas 637 127 450 385 12;
#X obj 54 65 inlet~;
#N canvas 2 93 450 300 args 0;
#X obj 69 41 loadbang;
#X msg 69 66 args 0;
#X obj 69 91 pdcontrol;
#X obj 69 116 pack -1 1;
#X obj 69 141 unpack 0 0;
#X obj 136 166 outlet;
#X obj 69 166 outlet;
#X connect 0 0 1 0;
#X connect 1 0 2 0;
#X connect 2 0 3 0;
#X connect 3 0 4 0;
#X connect 4 0 6 0;
#X connect 4 1 5 0;
#X restore 251 65 pd args;
#X f 8;
#X obj 72 170 clip~;
#X obj 147 65 inlet;
#X obj 200 65 inlet;
#X obj 54 210 -~;
#X obj 54 235 abs~;
#X obj 54 260 *~ 1e+30;
#X obj 54 285 clip~ 0 1;
#X obj 36 310 -~;
#X obj 36 27 sig~ 1;
#X obj 36 335 outlet~;
#X connect 0 0 2 0;
#X connect 0 0 5 0;
#X connect 1 0 2 1;
#X connect 1 1 2 2;
#X connect 2 0 5 1;
#X connect 3 0 2 1;
#X connect 4 0 2 2;
#X connect 5 0 6 0;
#X connect 6 0 7 0;
#X connect 7 0 8 0;
#X connect 8 0 9 1;
#X connect 9 0 11 0;
#X connect 10 0 9 0;
