#N canvas 577 116 493 590 12;
#X obj 58 141 osc~ 0.25;
#X obj 58 241 monitor~ -1 1;
#X obj 249 216 in-range~ -0.5 0.5;
#X obj 249 241 monitor~ 0 1;
#X msg 249 141 \; pd dsp 1;
#X text 57 341 Output: 1 means low < signal < high is true \; 0 means
false \; \; signal == low or signal == high is counted as false. \;
So this object is intended to detect a moving signal crossing into
or out of the given range. \; \; Inlets: \; 1 Signal input \; 2 Low
boundary (control inlet) \; 3 High boundary (control inlet) \; \; Arguments:
low and high boundaries (default -1 .. +1);
#X text 56 31 in-range~: Outputs 1 if the input signal is between (non-inclusive)
low and high endpoints \, 0 otherwise - hjh;
#X text 57 79 The formula comes from a PD forum post by lacuna \, many
thanks!;
#X obj 354 103 bng 15 250 50 0 empty empty empty 17 7 0 10 #fcfcfc
#000000 #000000;
#N canvas 0 0 450 300 forum-post 0;
#X obj 37 37 inlet;
#X msg 37 62 browse https://forum.pdpatchrepo.info/topic/13644/inrange-in-vanilla-any-improvements/3
;
#X obj 37 117 pdcontrol;
#X connect 0 0 1 0;
#X connect 1 0 2 0;
#X restore 354 123 pd forum-post;
#X connect 0 0 1 0;
#X connect 0 0 2 0;
#X connect 2 0 3 0;
#X connect 8 0 9 0;
