#N canvas 548 107 586 431 12;
#X text 116 38 increment;
#X obj 201 38 inlet;
#X obj 201 104 f \$1;
#X msg 408 88 resize 2;
#X msg 339 114 1 0 \, 0 1;
#X obj 59 184 -~ 0;
#X obj 59 329 rpole~;
#X obj 59 354 outlet~;
#X obj 271 38 loadbang;
#X obj 194 178 sig~ 1;
#X obj 194 203 -~, f 8;
#X obj 59 256 *~;
#X obj 59 304 +~ 0;
#X obj 201 129 t f f b;
#X obj 59 38 inlet~;
#X obj 339 139 tabwrite dirac\$0;
#X obj 408 113 array define dirac\$0;
#X obj 247 178 tabplay~ dirac\$0;
#X obj 271 63 t b b b, f 20;
#X text 349 16 (must be sure array is ready before initial trigger)
, f 29;
#X connect 1 0 2 0;
#X connect 2 0 13 0;
#X connect 3 0 16 0;
#X connect 4 0 15 0;
#X connect 5 0 11 0;
#X connect 6 0 7 0;
#X connect 8 0 18 0;
#X connect 9 0 10 0;
#X connect 10 0 11 1;
#X connect 10 0 6 1;
#X connect 11 0 12 0;
#X connect 12 0 6 0;
#X connect 13 0 5 1;
#X connect 13 1 12 1;
#X connect 13 2 17 0;
#X connect 14 0 5 0;
#X connect 17 0 10 1;
#X connect 18 0 2 0;
#X connect 18 1 4 0;
#X connect 18 2 3 0;
