#N canvas 309 132 871 440 12;
#X text 62 19 freq;
#X obj 430 43 inlet;
#X obj 62 94 phasor~;
#X obj 430 184 s \$0-type;
#X obj 62 43 inlet~;
#X obj 14 229 cos~;
#X obj 63 168 -~ 0.5;
#X obj 63 198 abs~;
#X obj 63 227 *~ 4;
#X obj 63 256 -~ 1;
#X obj 341 43 inlet~;
#X obj 243 186 noise~;
#X obj 243 273 samphold~;
#X obj 12 331 r \$0-type;
#X text 341 19 pulsewidth;
#X obj 88 403 outlet~;
#X obj 133 213 *~ 2;
#X obj 133 242 -~ 1;
#X msg 430 132 0;
#X msg 469 132 1;
#X msg 508 132 2;
#X msg 547 132 3;
#X msg 586 132 4;
#X obj 665 280 print invalid LFO type;
#X text 430 19 sin/tri/pulse/rand/line;
#X obj 430 103 select sin tri saw pulse rand line;
#X msg 625 132 5;
#N canvas 598 140 359 365 lfdnoise1 0;
#X obj 132 25 inlet~ phasor;
#X obj 150 61 samphold~;
#X obj 233 25 inlet~ noise;
#X obj 50 160 samphold~;
#X obj 151 208 -~;
#X obj 132 248 *~;
#X obj 115 284 +~;
#X obj 115 309 outlet~;
#X text 194 209 new - old;
#X text 166 246 * (0-1) phasor;
#X text 149 284 + old;
#X obj 15 108 fexpr~ $x1[-1];
#X connect 0 0 1 1;
#X connect 0 0 5 0;
#X connect 0 0 3 1;
#X connect 1 0 4 0;
#X connect 1 0 11 0;
#X connect 2 0 1 0;
#X connect 3 0 4 1;
#X connect 3 0 6 0;
#X connect 4 0 5 1;
#X connect 5 0 6 1;
#X connect 6 0 7 0;
#X connect 11 0 3 0;
#X restore 323 273 pd lfdnoise1;
#N canvas 380 99 530 259 multiplex6 0;
#X obj 24 23 inlet num;
#X obj 107 23 inlet~;
#X obj 170 23 inlet~;
#X obj 233 23 inlet~;
#X obj 296 23 inlet~;
#X obj 359 23 inlet~;
#X obj 422 23 inlet~;
#X obj 131 114 == 0;
#X obj 196 114 == 1;
#X obj 258 114 == 2;
#X obj 322 114 == 3;
#X obj 384 114 == 4;
#X obj 448 114 == 5;
#X obj 106 140 *~ 0;
#X obj 233 140 *~ 0;
#X obj 297 140 *~ 0;
#X obj 171 140 *~ 0;
#X obj 359 140 *~ 0;
#X obj 423 140 *~ 0;
#X obj 269 203 outlet~;
#X connect 0 0 12 0;
#X connect 0 0 11 0;
#X connect 0 0 10 0;
#X connect 0 0 9 0;
#X connect 0 0 8 0;
#X connect 0 0 7 0;
#X connect 1 0 13 0;
#X connect 2 0 16 0;
#X connect 3 0 14 0;
#X connect 4 0 15 0;
#X connect 5 0 17 0;
#X connect 6 0 18 0;
#X connect 7 0 13 1;
#X connect 8 0 16 1;
#X connect 9 0 14 1;
#X connect 10 0 15 1;
#X connect 11 0 17 1;
#X connect 12 0 18 1;
#X connect 13 0 19 0;
#X connect 14 0 19 0;
#X connect 15 0 19 0;
#X connect 16 0 19 0;
#X connect 17 0 19 0;
#X connect 18 0 19 0;
#X restore 88 363 pd multiplex6;
#X obj 147 273 clip~ -1 1;
#X obj 174 133 expr~ floor($v1 - $v2);
#X obj 174 213 *~ -2;
#X obj 174 242 -~ 1;
#N canvas 731 64 450 471 args 0;
#X obj 41 30 loadbang;
#X msg 41 55 args 0;
#X obj 41 80 pdcontrol;
#X obj 91 286 unpack s f f;
#X obj 172 311 outlet;
#X obj 131 336 outlet;
#X obj 91 361 outlet;
#X obj 41 105 route bang symbol list;
#X obj 41 168 symbol tri;
#X obj 91 261 pack s 1 0.5;
#X connect 0 0 1 0;
#X connect 1 0 2 0;
#X connect 2 0 7 0;
#X connect 3 0 6 0;
#X connect 3 1 5 0;
#X connect 3 2 4 0;
#X connect 7 0 8 0;
#X connect 7 1 9 0;
#X connect 7 2 9 0;
#X connect 8 0 9 0;
#X connect 9 0 3 0;
#X restore 218 6 pd args;
#X connect 2 0 5 0;
#X connect 2 0 6 0;
#X connect 2 0 12 1;
#X connect 2 0 16 0;
#X connect 2 0 27 0;
#X connect 2 0 30 0;
#X connect 4 0 2 0;
#X connect 5 0 28 1;
#X connect 6 0 7 0;
#X connect 7 0 8 0;
#X connect 8 0 9 0;
#X connect 9 0 28 2;
#X connect 10 0 30 1;
#X connect 11 0 12 0;
#X connect 11 0 27 1;
#X connect 12 0 28 5;
#X connect 13 0 28 0;
#X connect 16 0 17 0;
#X connect 17 0 28 3;
#X connect 18 0 3 0;
#X connect 19 0 3 0;
#X connect 20 0 3 0;
#X connect 21 0 3 0;
#X connect 22 0 3 0;
#X connect 25 0 18 0;
#X connect 25 1 19 0;
#X connect 25 2 20 0;
#X connect 25 3 21 0;
#X connect 25 4 22 0;
#X connect 25 5 26 0;
#X connect 25 6 23 0;
#X connect 26 0 3 0;
#X connect 27 0 28 6;
#X connect 28 0 15 0;
#X connect 29 0 28 4;
#X connect 30 0 31 0;
#X connect 31 0 32 0;
#X connect 32 0 29 0;
#X connect 33 0 25 0;
#X connect 33 1 4 0;
#X connect 33 2 10 0;
