#N canvas 612 71 542 618 12;
#X declare -path hjh-abs;
#X obj 92 234 hsl 170 20 0 127 0 0 empty empty empty -2 -10 0 12 #fcfcfc #000000 #000000 0 1;
#X obj 164 275 hsl 170 20 0 127 0 0 empty empty empty -2 -10 0 12 #fcfcfc #000000 #000000 0 1;
#X msg 179 317 sin;
#X msg 207 317 tri;
#X msg 263 317 pulse;
#X msg 233 317 saw;
#X msg 307 317 rand;
#X text 98 420 Output is -1 to +1;
#X msg 344 317 line;
#X text 89 32 lfo-norm-hjh~ -- a multimode LFO \; \; Creation arguments: \; 1 shape symbol (as below) \; 2 frequency \; 3 pulse width (only for 'pulse') \; \; Inputs: \; 1 frequency \; 2 pulse width \; 3 shape symbol;
#X obj 89 448 monitor~;
#X obj 89 547 declare -path hjh-abs;
#X obj 89 396 lfo-norm-hjh~ tri 0.3;
#X connect 0 0 12 0;
#X connect 1 0 12 1;
#X connect 2 0 12 2;
#X connect 3 0 12 2;
#X connect 4 0 12 2;
#X connect 5 0 12 2;
#X connect 6 0 12 2;
#X connect 8 0 12 2;
#X connect 12 0 10 0;
