#N canvas 723 67 582 595 12;
#N canvas 512 45 450 300 getargs 0;
#X obj 58 25 loadbang;
#X msg 58 50 args 0;
#X obj 58 75 pdcontrol;
#X obj 58 100 pack 0 1 0 1 0;
#X obj 58 125 unpack 0 1 0 1 0;
#X obj 58 150 outlet;
#X obj 85 175 outlet;
#X obj 112 150 outlet;
#X obj 139 175 outlet;
#X obj 167 150 outlet;
#X connect 0 0 1 0;
#X connect 1 0 2 0;
#X connect 2 0 3 0;
#X connect 3 0 4 0;
#X connect 4 0 5 0;
#X connect 4 1 6 0;
#X connect 4 2 7 0;
#X connect 4 3 8 0;
#X connect 4 4 9 0;
#X restore 414 45 pd getargs;
#N canvas 461 29 614 605 curvemap 0;
#X obj 358 138 exp;
#X obj 104 44 inlet;
#X obj 164 44 inlet;
#X obj 225 45 inlet;
#X obj 303 45 inlet;
#X obj 358 45 inlet;
#X obj 358 163 t f f, f 8;
#X msg 358 188 1 \$1;
#X obj 358 213 -;
#X obj 358 238 t b f;
#X obj 257 280 /, f 5;
#X obj 257 138 swap, f 7;
#X obj 257 163 -, f 7;
#X text 305 281 a;
#X obj 225 113 t f f;
#X obj 277 336 +, f 5;
#X text 322 335 b;
#N canvas 740 294 450 300 clipsmall 0;
#X obj 71 32 inlet;
#X obj 71 57 t f f, f 19;
#X obj 201 82 moses 0;
#X msg 247 107 1;
#X msg 201 107 -1;
#X obj 71 82 abs;
#X obj 244 18 hsl 128 15 0 127 0 0 empty empty empty -2 -8 0 10 #fcfcfc
#000000 #000000 0 1;
#X obj 71 107 clip 0.125 1e+34;
#X obj 71 132 *, f 19;
#X obj 71 157 outlet;
#X connect 0 0 1 0;
#X connect 1 0 5 0;
#X connect 1 1 2 0;
#X connect 2 0 4 0;
#X connect 2 1 3 0;
#X connect 3 0 8 1;
#X connect 4 0 8 1;
#X connect 5 0 7 0;
#X connect 7 0 8 0;
#X connect 8 0 9 0;
#X restore 358 70 pd clipsmall;
#X obj 104 69 t f f f;
#X obj 150 212 swap, f 7;
#X obj 150 237 -, f 7;
#X obj 257 305 t f b f;
#X obj 225 305 f;
#X obj 41 44 inlet;
#X obj 41 142 clip 0 1;
#X obj 41 212 -, f 12;
#X obj 41 311 /;
#X obj 411 336 f;
#X obj 203 430 pow;
#X obj 203 455 *, f 7;
#X obj 203 480 * -1;
#X obj 203 505 +, f 11;
#X obj 203 530 outlet;
#X text 362 363 only for cleaner lines;
#X obj 203 397 f;
#X obj 41 336 t b f;
#X obj 303 70 t b f;
#X obj 164 69 t f b f;
#X connect 0 0 6 0;
#X connect 1 0 18 0;
#X connect 2 0 37 0;
#X connect 3 0 14 0;
#X connect 4 0 36 0;
#X connect 5 0 17 0;
#X connect 6 0 7 0;
#X connect 6 1 27 0;
#X connect 7 0 8 0;
#X connect 8 0 9 0;
#X connect 9 0 10 0;
#X connect 9 1 10 1;
#X connect 10 0 21 0;
#X connect 11 0 12 0;
#X connect 11 1 12 1;
#X connect 12 0 10 0;
#X connect 14 0 22 0;
#X connect 14 1 11 0;
#X connect 15 0 31 1;
#X connect 17 0 0 0;
#X connect 18 0 24 1;
#X connect 18 1 25 1;
#X connect 18 2 19 0;
#X connect 19 0 20 0;
#X connect 19 1 20 1;
#X connect 20 0 26 1;
#X connect 21 0 29 1;
#X connect 21 1 15 0;
#X connect 21 2 15 1;
#X connect 22 0 15 0;
#X connect 23 0 24 0;
#X connect 24 0 25 0;
#X connect 25 0 26 0;
#X connect 26 0 35 0;
#X connect 27 0 34 1;
#X connect 28 0 29 0;
#X connect 29 0 30 0;
#X connect 30 0 31 0;
#X connect 31 0 32 0;
#X connect 34 0 28 0;
#X connect 35 0 34 0;
#X connect 35 1 28 1;
#X connect 36 0 11 0;
#X connect 36 1 11 1;
#X connect 37 0 24 2;
#X connect 37 1 19 0;
#X connect 37 2 19 1;
#X restore 67 387 pd curvemap;
#X f 18;
#X obj 91 44 inlet;
#X obj 135 44 inlet;
#X obj 233 45 inlet;
#X obj 277 45 inlet;
#X obj 345 45 inlet;
#N canvas 461 29 439 605 linmap 0;
#X obj 104 44 inlet;
#X obj 164 44 inlet;
#X obj 225 45 inlet;
#X obj 303 45 inlet;
#X obj 257 138 swap, f 7;
#X obj 257 163 -, f 7;
#X obj 225 113 t f f;
#X obj 104 69 t f f f;
#X obj 150 212 swap, f 7;
#X obj 150 237 -, f 7;
#X obj 41 44 inlet;
#X obj 41 142 clip 0 1;
#X obj 41 212 -, f 12;
#X obj 41 340 /;
#X obj 179 400 *, f 4;
#X obj 179 425 +, f 7;
#X obj 179 473 outlet;
#X obj 303 70 t b f;
#X obj 164 69 t f b f;
#X connect 0 0 7 0;
#X connect 1 0 18 0;
#X connect 2 0 6 0;
#X connect 3 0 17 0;
#X connect 4 0 5 0;
#X connect 4 1 5 1;
#X connect 5 0 14 1;
#X connect 6 0 15 1;
#X connect 6 1 4 0;
#X connect 7 0 11 1;
#X connect 7 1 12 1;
#X connect 7 2 8 0;
#X connect 8 0 9 0;
#X connect 8 1 9 1;
#X connect 9 0 13 1;
#X connect 10 0 11 0;
#X connect 11 0 12 0;
#X connect 12 0 13 0;
#X connect 13 0 14 0;
#X connect 14 0 15 0;
#X connect 15 0 16 0;
#X connect 17 0 4 0;
#X connect 17 1 4 1;
#X connect 18 0 11 2;
#X connect 18 1 8 0;
#X connect 18 2 8 1;
#X restore 231 387 pd linmap;
#X f 18;
#X obj 425 246 abs;
#X obj 152 459 outlet;
#X obj 20 44 inlet;
#N canvas 0 0 450 300 gate2 0;
#X obj 58 40 inlet;
#X obj 153 40 inlet;
#X obj 58 65 list prepend 1;
#X obj 58 90 route 0 1;
#X obj 88 115 outlet;
#X obj 58 140 outlet;
#X text 138 115 to linear map;
#X text 108 140 to curve map;
#X connect 0 0 2 0;
#X connect 1 0 2 1;
#X connect 2 0 3 0;
#X connect 3 0 5 0;
#X connect 3 1 4 0;
#X restore 20 328 pd gate2;
#X obj 425 271 < 0.125;
#X obj 91 69 unpack f f f f;
#X obj 233 70 unpack f f;
#X text 79 12 a rat's nest \, but supports various lists as input;
#X obj 20 186 unpack f f f f f f;
#X connect 0 0 1 1;
#X connect 0 0 7 1;
#X connect 0 1 1 2;
#X connect 0 1 7 2;
#X connect 0 2 1 3;
#X connect 0 2 7 3;
#X connect 0 3 1 4;
#X connect 0 3 7 4;
#X connect 0 4 1 5;
#X connect 0 4 8 0;
#X connect 1 0 9 0;
#X connect 2 0 13 0;
#X connect 3 0 7 2;
#X connect 3 0 1 2;
#X connect 4 0 14 0;
#X connect 5 0 7 4;
#X connect 5 0 1 4;
#X connect 6 0 8 0;
#X connect 6 0 1 5;
#X connect 7 0 9 0;
#X connect 8 0 12 0;
#X connect 10 0 16 0;
#X connect 11 0 1 0;
#X connect 11 1 7 0;
#X connect 12 0 11 1;
#X connect 13 0 7 1;
#X connect 13 0 1 1;
#X connect 13 1 7 2;
#X connect 13 1 1 2;
#X connect 13 2 7 3;
#X connect 13 2 1 3;
#X connect 13 3 7 4;
#X connect 13 3 1 4;
#X connect 14 0 7 3;
#X connect 14 0 1 3;
#X connect 14 1 7 4;
#X connect 14 1 1 4;
#X connect 16 0 11 0;
#X connect 16 1 7 1;
#X connect 16 1 1 1;
#X connect 16 2 7 2;
#X connect 16 2 1 2;
#X connect 16 3 7 3;
#X connect 16 3 1 3;
#X connect 16 4 7 4;
#X connect 16 4 1 4;
#X connect 16 5 8 0;
