#N canvas 723 67 582 595 12;
#N canvas 512 45 450 300 getargs 0;
#X obj 58 25 loadbang;
#X msg 58 50 args 0;
#X obj 58 75 pdcontrol;
#X obj 58 100 pack 0 1 0 1 0;
#X obj 58 125 unpack 0 1 0 1 0;
#X obj 58 150 outlet;
#X obj 85 175 outlet;
#X obj 112 150 outlet;
#X obj 139 175 outlet;
#X obj 167 150 outlet;
#X connect 0 0 1 0;
#X connect 1 0 2 0;
#X connect 2 0 3 0;
#X connect 3 0 4 0;
#X connect 4 0 5 0;
#X connect 4 1 6 0;
#X connect 4 2 7 0;
#X connect 4 3 8 0;
#X connect 4 4 9 0;
#X restore 414 45 pd getargs;
#N canvas 461 29 614 605 curvemap 0;
#X obj 104 44 inlet;
#X obj 164 44 inlet;
#X obj 225 45 inlet;
#X obj 303 45 inlet;
#X obj 264 138 swap, f 7;
#X obj 264 163 -, f 7;
#X text 312 238 a;
#X obj 225 113 t f f, f 6;
#X text 322 335 b;
#X obj 104 69 t f f f;
#X obj 150 212 swap, f 7;
#X obj 150 237 -, f 7;
#X obj 303 70 t b f;
#X obj 164 69 t f b f;
#X obj 41 44 inlet~;
#X obj 41 142 clip~ 0 1;
#X obj 41 212 -~, f 12;
#X obj 41 311 /~;
#X obj 358 169 *~ -1;
#X obj 358 194 +~ 1;
#X obj 358 138 exp~;
#X obj 358 45 inlet~;
#N canvas 740 294 450 300 clipsmall 0;
#X obj 244 18 hsl 128 15 0 127 0 0 empty empty empty -2 -8 0 10 #fcfcfc
#000000 #000000 0 1;
#X obj 201 82 *~ 1e+34;
#X obj 201 107 clip~ -1 1;
#X obj 71 32 inlet~;
#X obj 71 82 abs~;
#X obj 71 107 clip~ 0.125 1e+34;
#X obj 71 132 *~, f 19;
#X obj 71 157 outlet~;
#X connect 1 0 2 0;
#X connect 2 0 6 1;
#X connect 3 0 1 0;
#X connect 3 0 4 0;
#X connect 4 0 5 0;
#X connect 5 0 6 0;
#X connect 6 0 7 0;
#X restore 358 70 pd clipsmall;
#X obj 264 237 /~, f 5;
#X obj 264 212 sig~;
#X obj 203 430 pow~;
#X obj 203 455 *~, f 7;
#X obj 203 480 *~ -1;
#X obj 203 505 +~, f 11;
#X obj 203 530 outlet~;
#X obj 225 237 sig~;
#X obj 277 336 +~, f 5;
#X connect 0 0 9 0;
#X connect 1 0 13 0;
#X connect 2 0 7 0;
#X connect 3 0 12 0;
#X connect 4 0 5 0;
#X connect 4 1 5 1;
#X connect 5 0 24 0;
#X connect 7 0 30 0;
#X connect 7 1 4 0;
#X connect 9 0 15 1;
#X connect 9 1 16 1;
#X connect 9 2 10 0;
#X connect 10 0 11 0;
#X connect 10 1 11 1;
#X connect 11 0 17 1;
#X connect 12 0 4 0;
#X connect 12 1 4 1;
#X connect 13 0 15 2;
#X connect 13 1 10 0;
#X connect 13 2 10 1;
#X connect 14 0 15 0;
#X connect 15 0 16 0;
#X connect 16 0 17 0;
#X connect 17 0 25 1;
#X connect 18 0 19 0;
#X connect 19 0 23 1;
#X connect 20 0 18 0;
#X connect 20 0 25 0;
#X connect 21 0 22 0;
#X connect 22 0 20 0;
#X connect 23 0 31 1;
#X connect 23 0 26 1;
#X connect 24 0 23 0;
#X connect 25 0 26 0;
#X connect 26 0 27 0;
#X connect 27 0 28 0;
#X connect 28 0 29 0;
#X connect 30 0 31 0;
#X connect 31 0 28 1;
#X restore 67 268 pd curvemap;
#X f 18;
#X obj 91 44 inlet;
#X obj 135 44 inlet;
#X obj 233 45 inlet;
#X obj 277 45 inlet;
#N canvas 461 29 439 605 linmap 0;
#X obj 104 44 inlet;
#X obj 164 44 inlet;
#X obj 225 45 inlet;
#X obj 303 45 inlet;
#X obj 257 138 swap, f 7;
#X obj 257 163 -, f 7;
#X obj 225 113 t f f;
#X obj 104 69 t f f f;
#X obj 150 212 swap, f 7;
#X obj 150 237 -, f 7;
#X obj 303 70 t b f;
#X obj 164 69 t f b f;
#X obj 41 44 inlet~;
#X obj 179 473 outlet~;
#X obj 41 142 clip~ 0 1;
#X obj 41 212 -~, f 12;
#X obj 41 340 /~;
#X obj 179 400 *~, f 4;
#X obj 179 425 +~, f 7;
#X connect 0 0 7 0;
#X connect 1 0 11 0;
#X connect 2 0 6 0;
#X connect 3 0 10 0;
#X connect 4 0 5 0;
#X connect 4 1 5 1;
#X connect 5 0 17 1;
#X connect 6 0 18 1;
#X connect 6 1 4 0;
#X connect 7 0 14 1;
#X connect 7 1 15 1;
#X connect 7 2 8 0;
#X connect 8 0 9 0;
#X connect 8 1 9 1;
#X connect 9 0 16 1;
#X connect 10 0 4 0;
#X connect 10 1 4 1;
#X connect 11 0 14 2;
#X connect 11 1 8 0;
#X connect 11 2 8 1;
#X connect 12 0 14 0;
#X connect 14 0 15 0;
#X connect 15 0 16 0;
#X connect 16 0 17 0;
#X connect 17 0 18 0;
#X connect 18 0 13 0;
#X restore 231 268 pd linmap;
#X f 18;
#X obj 91 69 unpack f f f f;
#X obj 233 70 unpack f f;
#X text 79 12 a rat's nest \, but supports various lists as input;
#X obj 20 44 inlet~;
#X obj 67 394 *~;
#X obj 231 394 *~;
#X obj 148 460 outlet~;
#X obj 446 172 abs~;
#X obj 446 197 -~ 0.125;
#X obj 446 222 *~ 1e+34;
#X obj 446 247 clip~ 0 1;
#X obj 446 293 *~ -1;
#X obj 446 318 +~ 1;
#X text 237 446 *) Use abstraction arg to initialize curve if a signal
isn't connected, f 43;
#X obj 345 45 inlet~;
#X obj 500 12 f;
#X connect 0 0 1 1;
#X connect 0 0 6 1;
#X connect 0 1 1 2;
#X connect 0 1 6 2;
#X connect 0 2 1 3;
#X connect 0 2 6 3;
#X connect 0 3 1 4;
#X connect 0 3 6 4;
#X connect 0 4 22 0;
#X connect 1 0 11 0;
#X connect 2 0 7 0;
#X connect 3 0 6 2;
#X connect 3 0 1 2;
#X connect 4 0 8 0;
#X connect 5 0 6 4;
#X connect 5 0 1 4;
#X connect 6 0 12 0;
#X connect 7 0 6 1;
#X connect 7 0 1 1;
#X connect 7 1 6 2;
#X connect 7 1 1 2;
#X connect 7 2 6 3;
#X connect 7 2 1 3;
#X connect 7 3 6 4;
#X connect 7 3 1 4;
#X connect 8 0 6 3;
#X connect 8 0 1 3;
#X connect 8 1 6 4;
#X connect 8 1 1 4;
#X connect 10 0 6 0;
#X connect 10 0 1 0;
#X connect 11 0 13 0;
#X connect 12 0 13 0;
#X connect 14 0 15 0;
#X connect 15 0 16 0;
#X connect 16 0 17 0;
#X connect 17 0 18 0;
#X connect 17 0 11 1;
#X connect 18 0 19 0;
#X connect 19 0 12 1;
#X connect 21 0 14 0;
#X connect 21 0 1 5;
#X connect 22 0 21 0;
