#N canvas 577 102 450 397 12;
#X obj 81 172 inlet;
#X obj 225 172 inlet;
#X obj 81 271 list store;
#X obj 81 222 t b a, f 13;
#X obj 169 321 outlet;
#X obj 81 321 outlet;
#X obj 225 321 outlet;
#X obj 81 197 list split, f 21;
#X obj 140 34 loadbang;
#X msg 140 59 args 0;
#X obj 140 84 pdcontrol;
#X obj 140 109 f 1;
#X obj 81 296 list trim;
#X connect 0 0 7 0;
#X connect 1 0 7 1;
#X connect 2 0 12 0;
#X connect 3 0 2 0;
#X connect 3 1 4 0;
#X connect 7 0 3 0;
#X connect 7 1 2 1;
#X connect 7 2 6 0;
#X connect 8 0 9 0;
#X connect 9 0 10 0;
#X connect 10 0 11 0;
#X connect 11 0 7 1;
#X connect 12 0 5 0;
