#N canvas 568 117 778 626 12;
#X declare -lib cyclone;
#X obj 35 22 inlet note;
#X obj 188 22 inlet velocity;
#X obj 322 22 inlet glide;
#X obj 506 546 line~;
#X obj 506 571 outlet~;
#X obj 322 86 value gtime\$0;
#X obj 95 571 outlet notectl;
#X obj 260 571 outlet velocity;
#X obj 188 47 t f f;
#N canvas 2 93 450 300 fakegate 0;
#X obj 76 41 inlet note;
#X obj 229 41 inlet vel;
#X obj 229 66 > 0;
#X obj 145 130 swap, f 8;
#X obj 145 155 pack 0 0;
#X obj 145 180 route 1 0;
#X obj 221 234 outlet noteoff;
#X obj 121 234 outlet noteon;
#X connect 0 0 3 0;
#X connect 1 0 2 0;
#X connect 2 0 3 1;
#X connect 3 0 4 0;
#X connect 3 1 4 1;
#X connect 4 0 5 0;
#X connect 5 0 7 0;
#X connect 5 1 6 0;
#X restore 35 111 pd fakegate;
#X f 16;
#X obj 580 22 declare -lib cyclone;
#X obj 164 224 zl filter;
#X obj 164 199 list;
#X obj 95 366 t a a;
#X obj 127 391 s storelist\$0;
#N canvas 2 93 450 386 getlast 0;
#X obj 90 30 inlet list;
#X obj 90 55 t a a, f 17;
#X obj 90 80 list length;
#X obj 136 151 - 1;
#X obj 136 201 list store, f 13;
#X msg 136 176 get \$1 1;
#X obj 136 226 outlet;
#X obj 90 105 moses 1;
#X text 47 264 if incoming list is empty (bang) \, suppress output
\; because we don't want the playing note to change;
#X connect 0 0 1 0;
#X connect 1 0 2 0;
#X connect 1 1 4 1;
#X connect 2 0 7 0;
#X connect 3 0 5 0;
#X connect 4 0 6 0;
#X connect 5 0 4 0;
#X connect 7 1 3 0;
#X restore 95 416 pd getlast;
#X obj 144 136 t b b f b;
#X msg 239 224 1;
#X obj 144 314 spigot, f 14;
#X obj 164 249 t a b;
#X msg 196 274 0;
#X obj 95 441 t f f;
#X obj 216 136 r storelist\$0;
#X obj 35 199 list prepend;
#X obj 144 339 t b b;
#X obj 309 228 moses 1;
#X msg 260 391 0;
#X text 186 339 empty: release!;
#X obj 402 571 outlet gate;
#X obj 355 342 t f b;
#X msg 402 391 1;
#X obj 402 546 change;
#X obj 538 291 r storelist\$0;
#X obj 538 316 list length;
#X msg 584 366 bang;
#X obj 584 391 value gtime\$0;
#X msg 538 366 0;
#X obj 538 341 moses 2;
#X obj 538 457 spigot;
#X obj 402 416 t f f;
#N canvas 2 93 450 300 logic_comments 0;
#X text 56 28 work around zl filter's idiotic empty list behavior \;
1 Open spigot \; 2 Set up and run zl filter \; 3 If zl filter produces
output \, close spigot \; 4 Bang spigot (which will pass through only
if zl filter produced no output), f 44;
#X text 56 161 note-on velocities go directly through \; note-off velocity
only after all are released \; gate passes 1 for first note and 0 for
last off, f 44;
#X restore 580 47 pd logic_comments;
#X obj 408 22 loadbang;
#X obj 408 47 f \$1;
#X obj 260 416 t f f;
#X msg 468 391 0;
#X obj 506 521 pack 0 0;
#X text 571 521 "line~ doesn't remember";
#X connect 0 0 9 0;
#X connect 1 0 8 0;
#X connect 2 0 5 0;
#X connect 3 0 4 0;
#X connect 8 0 9 1;
#X connect 8 1 25 0;
#X connect 9 0 23 0;
#X connect 9 1 16 0;
#X connect 11 0 19 0;
#X connect 12 0 11 0;
#X connect 13 0 15 0;
#X connect 13 1 14 0;
#X connect 15 0 21 0;
#X connect 16 0 18 0;
#X connect 16 1 12 0;
#X connect 16 2 11 1;
#X connect 16 3 17 0;
#X connect 17 0 18 1;
#X connect 18 0 24 0;
#X connect 19 0 13 0;
#X connect 19 1 20 0;
#X connect 20 0 18 1;
#X connect 21 0 6 0;
#X connect 21 1 45 0;
#X connect 22 0 12 1;
#X connect 22 0 23 1;
#X connect 23 0 13 0;
#X connect 24 0 13 0;
#X connect 24 1 26 0;
#X connect 25 0 44 0;
#X connect 25 1 29 0;
#X connect 26 0 43 0;
#X connect 29 0 7 0;
#X connect 29 1 30 0;
#X connect 30 0 39 0;
#X connect 31 0 28 0;
#X connect 32 0 33 0;
#X connect 33 0 37 0;
#X connect 34 0 35 0;
#X connect 35 0 38 0;
#X connect 36 0 38 0;
#X connect 37 0 36 0;
#X connect 37 1 34 0;
#X connect 38 0 45 1;
#X connect 39 0 31 0;
#X connect 39 1 38 1;
#X connect 41 0 42 0;
#X connect 42 0 5 0;
#X connect 43 0 7 0;
#X connect 43 1 31 0;
#X connect 44 0 38 1;
#X connect 45 0 3 0;
