#N canvas 513 56 785 626 12;
#X declare -path hjh-abs -path iemguts;
#N canvas 62 55 450 590 mapvol 0;
#X obj 88 18 inlet;
#X obj 88 289 lincurve 0 1 0 2 3;
#X obj 246 389 outlet;
#X obj 88 214 list prepend 0, f 19;
#X obj 88 239 list trim;
#X obj 88 264 route 0 1, f 41;
#X obj 185 18 r \$0-muteR;
#X msg 372 289 0;
#X obj 88 189 f;
#X text 280 22 turn mute off \, bang old volume, f 17;
#X obj 141 160 select 0 1;
#X obj 141 18 inlet;
#X obj 185 102 t f f f, f 10;
#X obj 282 156 * 3;
#X obj 282 181 pack 0 \$0;
#X msg 282 206 \; \$2-muteR color \$1;
#X obj 185 59 route float;
#X obj 88 314 t f f;
#X obj 88 339 rmstodb;
#X obj 88 364 - 100;
#X obj 88 389 s \$0-volSave;
#X connect 0 0 8 0;
#X connect 1 0 17 0;
#X connect 3 0 4 0;
#X connect 4 0 5 0;
#X connect 5 0 1 0;
#X connect 5 2 7 0;
#X connect 6 0 16 0;
#X connect 7 0 2 0;
#X connect 8 0 3 0;
#X connect 10 0 8 0;
#X connect 10 1 7 0;
#X connect 11 0 16 0;
#X connect 12 0 10 0;
#X connect 12 1 3 1;
#X connect 12 2 13 0;
#X connect 13 0 14 0;
#X connect 14 0 15 0;
#X connect 16 0 12 0;
#X connect 17 0 18 0;
#X connect 17 1 2 0;
#X connect 18 0 19 0;
#X connect 19 0 20 0;
#X restore 208 182 pd mapvol;
#X floatatom 268 207 5 0 0 0 - - - 0;
#X msg 268 231 \$1 40;
#X obj 268 256 line~;
#X symbolatom 72 66 10 0 0 0 - \$0-nameR \$0-nameS 0;
#X obj 467 142 inlet~;
#X obj 302 334 *~;
#X obj 366 334 *~;
#X obj 366 383 outlet~;
#X obj 302 383 outlet~;
#X obj 320 89 r \$0-auxL;
#X obj 449 89 r \$0-auxR;
#N canvas 480 60 324 573 setname 0;
#X obj 37 186 r \$0-nameS;
#X obj 37 254 pack s \$0;
#X obj 37 211 t a a;
#X obj 37 22 loadbang;
#X obj 37 101 symbol \$1;
#X obj 37 126 s \$0-nameS;
#X msg 37 279 \; \$2-nameR set \$1 \; \$2-auxL \$1-auxL \; \$2-auxR
\$1-auxR;
#X obj 37 47 spigot 1, f 12;
#X obj 118 22 r \$0-useArgs;
#X connect 0 0 2 0;
#X connect 1 0 6 0;
#X connect 2 0 1 0;
#X connect 3 0 7 0;
#X connect 4 0 5 0;
#X connect 7 0 4 0;
#X connect 8 0 7 1;
#X restore 75 20 pd setname;
#X obj 598 89 inlet;
#N canvas 311 346 450 300 init 0;
#X obj 76 22 loadbang;
#X obj 76 47 pack \$0 0.785147;
#X msg 76 72 \; \$1-vol \$2;
#X connect 0 0 1 0;
#X connect 1 0 2 0;
#X restore 184 20 pd init;
#X obj 598 189 s \$0-vol;
#N canvas 0 0 476 452 savestate 0;
#X obj 216 52 inlet;
#X obj 177 111 symbol;
#X obj 72 179 savestate;
#X obj 72 279 list prepend \$0;
#X obj 72 304 list trim;
#X obj 72 254 list, f 11;
#X obj 72 229 delay 10;
#X obj 356 52 inlet;
#X text 360 23 mute;
#X text 211 356 should do mute state before volume;
#X obj 72 204 t b a b, f 21;
#X obj 216 229 f \$0;
#X msg 216 254 \; \$1-useArgs 0;
#X obj 177 136 pack s 0 0, f 26;
#X msg 72 329 \; \$1-nameR symbol \$2 \; \$1-muteR \$4 \; \$1-volRestore
\$3;
#X obj 262 52 r \$0-volSave;
#X connect 0 0 1 1;
#X connect 1 0 13 0;
#X connect 2 0 10 0;
#X connect 2 1 1 0;
#X connect 3 0 4 0;
#X connect 4 0 14 0;
#X connect 5 0 3 0;
#X connect 6 0 5 0;
#X connect 7 0 13 2;
#X connect 10 0 6 0;
#X connect 10 1 5 1;
#X connect 10 2 11 0;
#X connect 11 0 12 0;
#X connect 13 0 2 0;
#X connect 15 0 13 1;
#X restore 19 207 pd savestate;
#X obj 19 182 r \$0-nameS;
#X obj 158 66 tgl 15 0 empty \$0-muteR mute -3 21 0 10 #fcfcfc #000000
#000000 0 1;
#X obj 598 164 curvelin 0 2 0 1 3;
#X obj 598 139 dbtorms;
#X obj 75 94 hsl 96 15 0 1 0 0 empty \$0-vol empty -2 -8 0 10 #fcfcfc
#000000 #000000 0 1;
#N canvas 0 0 515 352 fwd 0;
#X obj 76 27 inlet;
#X obj 76 52 list append \$0;
#X obj 76 77 list trim;
#X text 213 32 all should be selector arg \; no long messages;
#X obj 221 127 list;
#X obj 76 127 list;
#X msg 76 152 \; \$2-muteR \$1;
#X msg 221 152 \; \$2-nameR symbol \$1;
#X obj 76 102 route mute name, f 42;
#X connect 0 0 1 0;
#X connect 1 0 2 0;
#X connect 2 0 8 0;
#X connect 4 0 7 0;
#X connect 5 0 6 0;
#X connect 8 0 5 0;
#X connect 8 1 4 0;
#X restore 366 181 pd fwd;
#X obj 338 142 inlet~ fwd;
#X obj 320 114 dcatch/dcatch~;
#X obj 449 114 dcatch/dcatch~;
#X obj 288 20 declare -path hjh-abs -path iemguts;
#X obj 598 114 + 100;
#X obj 573 60 r \$0-volRestore;
#X connect 0 0 1 0;
#X connect 1 0 2 0;
#X connect 2 0 3 0;
#X connect 3 0 6 0;
#X connect 3 0 7 0;
#X connect 5 0 7 1;
#X connect 6 0 9 0;
#X connect 7 0 8 0;
#X connect 10 0 24 0;
#X connect 11 0 25 0;
#X connect 13 0 27 0;
#X connect 17 0 16 0;
#X connect 18 0 16 1;
#X connect 18 0 0 1;
#X connect 19 0 15 0;
#X connect 20 0 19 0;
#X connect 21 0 0 0;
#X connect 23 0 6 1;
#X connect 23 1 22 0;
#X connect 24 0 6 1;
#X connect 25 0 7 1;
#X connect 27 0 20 0;
#X connect 28 0 27 0;
#X coords 0 -1 1 1 122 62 2 61 56;
