#N canvas 512 29 675 636 12;
#X declare -path hjh-abs;
#X obj 452 23 declare -path hjh-abs;
#X obj 489 249 cnv 15 124 348 empty empty empty 20 12 0 14 #e0e0e0
#404040 0;
#X obj 503 291 fader~ demomain;
#A saved demomain -18 0 main 0;
#X obj 503 566 dac~, f 13;
#X text 506 253 main output channel, f 12;
#X obj 256 389 cnv 15 218 208 empty empty empty 20 12 0 14 #c7c6ff
#404040 0;
#X obj 270 430 mixersink~ rvb;
#A saved rvb 0 0;
#X obj 270 516 rev3~ 100 92 5000 20;
#X obj 315 541 throw~ demomain-auxR;
#X obj 271 566 throw~ demomain-auxL;
#X text 321 399 reverb insert;
#X obj 256 201 cnv 15 218 178 empty empty empty 20 12 0 14 #ffe3c6
#404040 0;
#X obj 264 307 mixersend~ demoSrcB rvb;
#A saved demoSrcB 0 0 rvb 0;
#X obj 264 238 mixersend~ demoSrcA rvb;
#A saved demoSrcA 0 0 rvb 0;
#X text 310 210 sends to reverb;
#X obj 25 249 cnv 15 220 304 empty empty empty 20 12 0 14 #c6ffc7 #404040
0;
#X obj 34 291 fader~ demoSrcA demomain;
#A saved demoSrcA -9.15591 0 demomain 0;
#X obj 142 291 fader~ demoSrcB demomain;
#A saved demoSrcB -17.0477 0 demomain 0;
#X text 81 258 source channels;
#N canvas 0 0 450 300 lfo1 0;
#X obj 158 35 osc~ 0.3;
#X obj 84 35 sig~ 3;
#X obj 109 70 pow~;
#X obj 109 95 osc~;
#X obj 109 183 lfo-norm-hjh~ line;
#X obj 84 208 pow~;
#X obj 84 233 *~ 400;
#X obj 84 258 outlet~;
#X obj 109 125 *~ 10;
#X obj 109 150 +~ 11;
#X connect 0 0 2 1;
#X connect 1 0 2 0;
#X connect 1 0 5 0;
#X connect 2 0 3 0;
#X connect 3 0 8 0;
#X connect 4 0 5 1;
#X connect 5 0 6 0;
#X connect 6 0 7 0;
#X connect 8 0 9 0;
#X connect 9 0 4 0;
#X restore 26 59 pd lfo1;
#X obj 89 14 tgl 15 0 empty empty empty 17 7 0 10 #fcfcfc #000000 #000000
0 1;
#X obj 89 34 metro 100;
#X obj 26 88 snapshot~;
#X obj 26 113 osc~;
#X msg 112 88 1 10 \, 0 60 10;
#X obj 112 113 vline~;
#X obj 67 144 *~;
#X obj 100 179 throw~ demoSrcA-auxR;
#X obj 33 207 throw~ demoSrcA-auxL;
#N canvas 0 0 450 300 lfo2 0;
#X obj 158 35 osc~ 0.3;
#X obj 84 35 sig~ 3;
#X obj 109 70 pow~;
#X obj 109 95 osc~;
#X obj 109 120 lfo-norm-hjh~ line;
#X obj 84 158 pow~;
#X obj 84 183 *~ 400;
#X obj 84 208 outlet~;
#X connect 0 0 2 1;
#X connect 1 0 2 0;
#X connect 1 0 5 0;
#X connect 2 0 3 0;
#X connect 3 0 4 0;
#X connect 4 0 5 1;
#X connect 5 0 6 0;
#X connect 6 0 7 0;
#X restore 263 59 pd lfo2;
#X obj 263 84 osc~;
#X obj 332 34 osc~ 0.7;
#X obj 332 59 *~ 0.5;
#X obj 332 84 +~ 0.5;
#X obj 296 117 *~;
#X obj 325 144 throw~ demoSrcB-auxR;
#X obj 258 172 throw~ demoSrcB-auxL;
#X obj 89 59 t b b b;
#X obj 173 34 random 100;
#X obj 173 59 + 75;
#X obj 153 9 loadbang;
#X msg 117 9 1;
#X text 527 95 reset sends to fullscale, f 12;
#X msg 492 104 0;
#X connect 2 0 3 0;
#X connect 2 1 3 1;
#X connect 6 0 7 0;
#X connect 6 1 7 1;
#X connect 7 0 9 0;
#X connect 7 1 8 0;
#X connect 19 0 22 0;
#X connect 20 0 21 0;
#X connect 21 0 37 0;
#X connect 22 0 23 0;
#X connect 23 0 26 0;
#X connect 24 0 25 0;
#X connect 25 0 26 1;
#X connect 26 0 27 0;
#X connect 26 0 28 0;
#X connect 29 0 30 0;
#X connect 30 0 34 0;
#X connect 31 0 32 0;
#X connect 32 0 33 0;
#X connect 33 0 34 1;
#X connect 34 0 35 0;
#X connect 34 0 36 0;
#X connect 37 0 22 0;
#X connect 37 1 24 0;
#X connect 37 2 38 0;
#X connect 38 0 39 0;
#X connect 39 0 21 1;
#X connect 40 0 41 0;
#X connect 41 0 20 0;
#X connect 43 0 13 2;
#X connect 43 0 12 2;
