#N canvas 602 112 506 237 12;
#X obj 113 155 hsl 128 15 -1 1 0 0 empty empty empty -2 -8 0 10 -262144
-1 -1 6369 1;
#X floatatom 110 131 8 0 0 0 - - -;
#X obj 317 18 loadbang;
#X msg 370 82 args 0;
#X obj 370 107 pdcontrol;
#X obj 370 132 pack -1 1;
#X msg 370 157 range \$1 \$2;
#X obj 224 131 tgl 19 0 empty empty empty 17 7 0 10 -262144 -1 -1 1
1;
#X obj 317 43 t b b, f 8;
#X msg 317 68 1;
#X obj 157 18 inlet~;
#X obj 157 43 snapshot~;
#X obj 92 18 metro 50;
#X obj 250 18 inlet;
#X connect 2 0 8 0;
#X connect 3 0 4 0;
#X connect 4 0 5 0;
#X connect 5 0 6 0;
#X connect 6 0 0 0;
#X connect 7 0 12 0;
#X connect 8 0 9 0;
#X connect 8 1 3 0;
#X connect 9 0 7 0;
#X connect 10 0 11 0;
#X connect 11 0 1 0;
#X connect 11 0 0 0;
#X connect 12 0 11 0;
#X connect 13 0 7 0;
#X coords 0 -1 1 1 154 80 1 100 100;
