#N canvas 523 110 495 351 12;
#X obj 219 258 array define \$1;
#X obj 63 20 loadbang;
#N canvas 311 93 794 494 makeReadMsg 0;
#X obj 70 42 inlet;
#X text 129 42 list table path start numframes;
#X obj 324 124 unpack s s 0 0;
#X obj 419 149 select -1, f 26;
#X obj 69 174 r \$0-hasNumFrames;
#X obj 244 174 r \$0-hasntNumFrames;
#X obj 419 174 f \$0;
#X msg 419 199 \; \$1-hasNumFrames 0 \; \$1-hasntNumFrames 1;
#X obj 598 199 f \$0;
#X msg 598 224 \; \$1-hasNumFrames 1 \; \$1-hasntNumFrames 0;
#X obj 30 199 spigot;
#X obj 205 199 spigot;
#X obj 70 67 t l l l;
#X msg 205 279 read -resize -skip \$3 \$2 \$1;
#X msg 30 348 read -resize -skip \$3 -maxsize \$4 \$2 \$1;
#X obj 103 431 outlet;
#X msg 598 174 bang;
#X connect 0 0 12 0;
#X connect 2 3 3 0;
#X connect 3 0 6 0;
#X connect 3 1 16 0;
#X connect 4 0 10 1;
#X connect 5 0 11 1;
#X connect 6 0 7 0;
#X connect 8 0 9 0;
#X connect 10 0 14 0;
#X connect 11 0 13 0;
#X connect 12 0 10 0;
#X connect 12 1 11 0;
#X connect 12 2 2 0;
#X connect 13 0 15 0;
#X connect 14 0 15 0;
#X connect 16 0 8 0;
#X restore 63 199 pd makeReadMsg;
#X obj 63 258 soundfiler2, f 17;
#X obj 63 143 t l l;
#X obj 179 199 unpack s;
#X obj 165 45 list prepend \$1;
#X obj 165 20 inlet;
#X text 212 20 list path start numframes;
#X msg 63 45 args 0;
#X obj 63 70 pdcontrol;
#X obj 63 118 pack s s 0 -1;
#X obj 63 283 outlet;
#X connect 1 0 9 0;
#X connect 2 0 3 0;
#X connect 3 0 12 0;
#X connect 4 0 2 0;
#X connect 4 1 5 0;
#X connect 5 0 3 1;
#X connect 6 0 11 0;
#X connect 7 0 6 0;
#X connect 9 0 10 0;
#X connect 10 0 11 0;
#X connect 11 0 4 0;
