#N canvas 211 98 607 544 12;
#X obj 108 30 inlet value;
#X obj 284 26 inlet resetbang;
#X msg 338 119 0;
#X obj 168 200 f;
#X obj 168 225 t f f f;
#X obj 248 200 + 1;
#X obj 411 26 loadbang;
#X obj 411 51 t b b;
#X msg 443 76 args 0;
#X obj 443 101 pdcontrol;
#X obj 443 126 route bang;
#X msg 443 151 10;
#X obj 403 398 array define \$0-history;
#X msg 403 343 \; \$2-history resize \$1 \; \$2-history const 0;
#X obj 489 295 pack f \$0;
#X obj 248 225 %;
#X obj 443 205 t f f f;
#X obj 43 470 /;
#X obj 108 55 t b f f b;
#X obj 191 250 tabread \$0-history;
#X obj 43 310 +;
#X obj 43 335 -;
#X obj 148 310 tabwrite \$0-history;
#X obj 43 189 f;
#X obj 43 360 t f f, f 7;
#X obj 43 495 outlet;
#X obj 338 144 t f f;
#X obj 443 180 f;
#X obj 338 76 t b b;
#X obj 284 51 route float bang;
#X obj 284 76 t b f;
#X connect 0 0 18 0;
#X connect 1 0 29 0;
#X connect 2 0 26 0;
#X connect 3 0 4 0;
#X connect 4 0 22 1;
#X connect 4 1 19 0;
#X connect 4 2 5 0;
#X connect 5 0 15 0;
#X connect 6 0 7 0;
#X connect 7 0 2 0;
#X connect 7 1 8 0;
#X connect 8 0 9 0;
#X connect 9 0 10 0;
#X connect 10 0 11 0;
#X connect 10 1 27 0;
#X connect 11 0 27 0;
#X connect 14 0 13 0;
#X connect 15 0 3 1;
#X connect 16 0 15 1;
#X connect 16 1 17 1;
#X connect 16 2 14 0;
#X connect 17 0 25 0;
#X connect 18 0 23 0;
#X connect 18 1 20 1;
#X connect 18 2 22 0;
#X connect 18 3 3 0;
#X connect 19 0 21 1;
#X connect 20 0 21 0;
#X connect 21 0 24 0;
#X connect 23 0 20 0;
#X connect 24 0 17 0;
#X connect 24 1 23 1;
#X connect 26 0 23 1;
#X connect 26 1 3 1;
#X connect 27 0 16 0;
#X connect 28 0 2 0;
#X connect 28 1 27 0;
#X connect 29 0 30 0;
#X connect 29 1 28 0;
#X connect 30 0 2 0;
#X connect 30 1 27 0;
