#N canvas 415 114 607 544 12;
#X declare -lib cyclone;
#X obj 108 26 inlet value;
#X obj 284 26 inlet resetbang;
#X obj 411 26 loadbang;
#X obj 411 51 t b b;
#X msg 443 76 args 0;
#X obj 443 101 pdcontrol;
#X obj 443 126 route bang;
#X msg 443 151 10;
#X obj 443 180 f;
#X msg 284 51 bang;
#X obj 108 51 unpack 0;
#X obj 108 141 list prepend;
#X obj 443 205 + 1;
#X obj 108 166 t l l l, f 11;
#X obj 270 336 list;
#X obj 307 336 list;
#X obj 108 229 list length;
#X obj 108 262 moses, f 7;
#X msg 108 287 bang;
#X msg 154 287 bang;
#X text 345 326 L: not long enough \, just add \; R: long enough \,
drop first;
#X obj 307 361 list split 1;
#X obj 241 407 t l l;
#X obj 406 457 declare -lib cyclone;
#X obj 241 432 zl median;
#X obj 241 457 outlet;
#X connect 0 0 10 0;
#X connect 1 0 9 0;
#X connect 2 0 3 0;
#X connect 3 0 11 1;
#X connect 3 1 4 0;
#X connect 4 0 5 0;
#X connect 5 0 6 0;
#X connect 6 0 7 0;
#X connect 6 1 8 0;
#X connect 7 0 8 0;
#X connect 8 0 12 0;
#X connect 9 0 11 1;
#X connect 10 0 11 0;
#X connect 11 0 13 0;
#X connect 12 0 17 1;
#X connect 13 0 16 0;
#X connect 13 1 14 1;
#X connect 13 2 15 1;
#X connect 14 0 22 0;
#X connect 15 0 21 0;
#X connect 16 0 17 0;
#X connect 17 0 18 0;
#X connect 17 1 19 0;
#X connect 18 0 14 0;
#X connect 19 0 15 0;
#X connect 21 1 22 0;
#X connect 22 0 24 0;
#X connect 22 1 11 1;
#X connect 24 0 25 0;
