#N canvas 586 102 519 638 12;
#X declare -lib cyclone;
#X text 51 522 Argument: Length of circular buffer (default 10);
#N canvas 0 50 450 250 (subpatch) 0;
#X array raw 100 float 4;
#X coords 0 100 100 0 200 140 1 0 0;
#X restore 52 353 graph;
#N canvas 0 50 450 250 (subpatch) 0;
#X array smooth 100 float 4;
#X coords 0 100 100 0 200 140 1 0 0;
#X restore 273 353 graph;
#X obj 143 100 tgl 15 0 empty empty empty 17 7 0 10 -262144 -1 -1 0
1;
#X obj 143 120 metro 50;
#X obj 143 145 t b b;
#X obj 175 170 f;
#X obj 175 195 t f f f;
#X obj 246 170 + 1;
#X obj 246 195 mod 100;
#X obj 201 288 tabwrite raw;
#X obj 52 288 tabwrite smooth, f 18;
#X obj 96 195 t f f;
#X obj 96 170 random 100;
#X text 51 20 moving-median: A control-rate smoothing filter;
#X text 50 44 note: Depends on cyclone. (There is no easy median function
in pd-vanilla.);
#X obj 310 120 declare -lib cyclone;
#X obj 52 263 moving-median 21;
#X obj 309 163 cnv 15 134 60 empty empty empty 20 12 0 14 -204786 -66577
0;
#X obj 360 200 bng 15 250 50 0 empty empty just-reset 17 7 0 10 -262144
-1 -1;
#X floatatom 318 196 5 1 100 2 resize-and-reset - -;
#X text 50 552 Inlets: L = One datum \, R = bang to reset or float
to resize;
#X text 50 580 Outlet: Moving median result;
#X connect 3 0 4 0;
#X connect 4 0 5 0;
#X connect 5 0 13 0;
#X connect 5 1 6 0;
#X connect 6 0 7 0;
#X connect 7 0 11 1;
#X connect 7 1 10 1;
#X connect 7 2 8 0;
#X connect 8 0 9 0;
#X connect 9 0 6 1;
#X connect 12 0 17 0;
#X connect 12 1 10 0;
#X connect 13 0 12 0;
#X connect 17 0 11 0;
#X connect 19 0 17 1;
#X connect 20 0 17 1;
