#N canvas 599 93 450 416 12;
#X obj 59 29 inlet note;
#X obj 224 29 inlet flag;
#X obj 138 29 inlet glide;
#X obj 59 257 pack 0 0;
#X obj 91 307 outlet glidelist;
#X obj 59 282 t a a;
#X obj 59 332 line~;
#X obj 59 357 outlet~ glide;
#X obj 138 160 f \$1;
#X obj 138 211 *;
#X obj 224 54 t b f;
#X obj 59 232 change;
#X connect 0 0 11 0;
#X connect 1 0 10 0;
#X connect 2 0 8 1;
#X connect 3 0 5 0;
#X connect 5 0 6 0;
#X connect 5 1 4 0;
#X connect 6 0 7 0;
#X connect 8 0 9 0;
#X connect 9 0 3 1;
#X connect 10 0 8 0;
#X connect 10 1 9 1;
#X connect 11 0 3 0;
