#N canvas 599 93 450 300 12;
#X obj 59 29 inlet note;
#X obj 138 29 inlet flag;
#X obj 217 29 inlet glide;
#X obj 138 103 * \$1;
#X obj 59 149 pack 0 0;
#X obj 91 199 outlet glidelist;
#X obj 59 174 t a a;
#X obj 59 224 line~;
#X obj 59 249 outlet~ glide;
#X connect 0 0 4 0;
#X connect 1 0 3 0;
#X connect 2 0 3 1;
#X connect 3 0 4 1;
#X connect 4 0 6 0;
#X connect 6 0 7 0;
#X connect 6 1 5 0;
#X connect 7 0 8 0;
