#N canvas 340 46 853 622 12;
#X obj 237 47 r _playhead;
#N canvas 400 47 450 562 filterChanges 0;
#X obj 69 36 inlet;
#X obj 69 521 outlet;
#X obj 254 417 value \$0-recording;
#X obj 254 442 value \$0-looping;
#X obj 254 467 value \$0-lastbar;
#X obj 254 492 value \$0-timesig;
#X obj 69 86 list split 1, f 22;
#X obj 69 405 list store, f 19;
#X obj 69 330 ==;
#X obj 144 270 unpack f;
#X obj 69 270 value;
#X obj 69 355 select 0;
#X obj 69 61 t a a, f 32;
#X obj 144 295 t f f;
#X obj 69 245 t b a a, f 9;
#X obj 125 445 f;
#X obj 69 380 t b b;
#X obj 125 470 value;
#X obj 69 195 pack s \$0;
#X msg 69 220 symbol \$2-\$1;
#X obj 69 496 list trim;
#X connect 0 0 12 0;
#X connect 6 0 18 0;
#X connect 6 1 9 0;
#X connect 7 0 20 0;
#X connect 8 0 11 0;
#X connect 9 0 13 0;
#X connect 10 0 8 0;
#X connect 11 0 16 0;
#X connect 12 0 6 0;
#X connect 12 1 7 1;
#X connect 13 0 8 1;
#X connect 13 1 15 1;
#X connect 14 0 10 0;
#X connect 14 1 10 1;
#X connect 14 2 17 1;
#X connect 15 0 17 0;
#X connect 16 0 7 0;
#X connect 16 1 15 0;
#X connect 18 0 19 0;
#X connect 19 0 14 0;
#X connect 20 0 1 0;
#X restore 654 97 pd filterChanges;
#X obj 654 532 outlet;
#X obj 375 97 unpack f;
#X msg 375 280 tempo \$1 permin;
#X obj 358 532 outlet;
#X obj 147 72 inlet;
#X text 133 18 pre-beat threshold (x < 1.0), f 10;
#X obj 147 172 wrap;
#X msg 147 197 1 \$1;
#X obj 147 222 -;
#X obj 147 261 moses;
#X obj 47 47 loadbang;
#X msg 47 72 args 0;
#X obj 47 97 pdcontrol;
#X obj 47 122 pack 0.1;
#X obj 237 97 unpack f;
#X obj 237 159 change;
#X obj 237 209 wrap;
#X msg 188 372 1 \$1;
#X obj 188 397 -;
#X obj 188 453 f, f 15;
#X obj 188 423 delay;
#X obj 188 286 spigot 1;
#X obj 188 311 t f b, f 8;
#X msg 262 286 0;
#X msg 188 503 \$1 1;
#X obj 188 532 outlet;
#X text 163 552 tick messages;
#X text 331 552 tempo x permin;
#X obj 375 305 t a a;
#X msg 147 297 1;
#N canvas 0 30 450 300 roundUp 0;
#X obj 92 45 inlet;
#X obj 92 95 int;
#X obj 92 120 outlet;
#X obj 92 70 + 0.999999;
#X connect 0 0 3 0;
#X connect 1 0 2 0;
#X connect 3 0 1 0;
#X restore 188 478 pd roundUp;
#N canvas 171 62 615 636 playInitTick 0;
#X obj 263 54 inlet;
#X obj 65 54 inlet;
#X obj 118 460 wrap;
#X msg 118 485 1 \$1;
#X obj 118 510 -;
#X obj 65 535 pack f f;
#X obj 65 560 outlet;
#X text 35 14 position messages (float only), f 17;
#X text 260 14 change-filtered playing flag, f 15;
#X text 132 54 "buddy" logic;
#X obj 242 510 pack f f, f 10;
#X msg 173 125 1;
#X obj 151 161 |, f 8;
#X obj 151 186 t f f;
#X obj 65 287 f, f 5;
#X obj 65 79 t b f;
#X msg 124 125 2;
#X obj 151 236 t b b, f 10;
#X msg 253 186 0;
#X msg 242 535 playAtBeat \$2 \$1;
#X obj 242 560 outlet;
#X obj 263 79 t b f f;
#X obj 65 375 spigot, f 32;
#X obj 65 312 t f f, f 26;
#X obj 65 400 t f f, f 8;
#X text 199 584 (yes \, we want to send this before the init tick message)
, f 30;
#X text 341 182 1 buddy (must get both play flag and beat counter before
proceeding) \; 2 Pack play flag and time into "playAtBeat" message
\; 3 Calculate time to next beat and generate partial-beat tick message.
, f 30;
#X obj 151 211 select 3;
#X connect 0 0 21 0;
#X connect 1 0 15 0;
#X connect 2 0 3 0;
#X connect 3 0 4 0;
#X connect 4 0 5 1;
#X connect 5 0 6 0;
#X connect 10 0 19 0;
#X connect 11 0 12 0;
#X connect 12 0 13 0;
#X connect 13 0 27 0;
#X connect 13 1 12 1;
#X connect 14 0 23 0;
#X connect 15 0 16 0;
#X connect 15 1 14 1;
#X connect 16 0 12 0;
#X connect 17 0 14 0;
#X connect 17 1 18 0;
#X connect 18 0 12 1;
#X connect 19 0 20 0;
#X connect 21 0 11 0;
#X connect 21 1 22 1;
#X connect 21 2 10 1;
#X connect 22 0 24 0;
#X connect 23 0 22 0;
#X connect 23 1 10 0;
#X connect 24 0 5 0;
#X connect 24 1 2 0;
#X connect 27 0 17 0;
#X restore 394 460 pd playInitTick;
#X f 16;
#X obj 237 122 t f f, f 10;
#X obj 237 72 route position bpm playing, f 60;
#X obj 567 435 list prepend playing;
#X obj 567 460 list trim;
#X obj 515 97 t f a, f 11;
#X obj 567 410 list store;
#X obj 515 122 change;
#X obj 237 184 t f f, f 8;
#X text 639 552 all other except position;
#X obj 375 122 change -1;
#X obj 375 147 t f f, f 9;
#X text 445 225 send tempo upon play start, f 15;
#X obj 403 235 f 120;
#X obj 515 147 t f b f;
#X obj 561 172 select 1;
#N canvas 738 241 450 300 handleIn 0;
#X obj 37 37 inlet;
#X obj 37 62 route debug;
#X obj 41 206 outlet;
#X obj 107 206 outlet;
#X connect 0 0 1 0;
#X connect 1 0 3 0;
#X connect 1 1 2 0;
#X restore 147 97 pd handleIn;
#X obj 20 364 spigot;
#X obj 20 389 print pos1;
#X obj 290 423 spigot 1;
#X connect 0 0 35 0;
#X connect 1 0 2 0;
#X connect 3 0 43 0;
#X connect 4 0 30 0;
#X connect 6 0 49 0;
#X connect 8 0 9 0;
#X connect 9 0 10 0;
#X connect 10 0 11 1;
#X connect 11 0 31 0;
#X connect 11 1 23 0;
#X connect 12 0 13 0;
#X connect 13 0 14 0;
#X connect 14 0 15 0;
#X connect 15 0 8 0;
#X connect 16 0 34 0;
#X connect 17 0 41 0;
#X connect 18 0 11 0;
#X connect 19 0 20 0;
#X connect 20 0 22 0;
#X connect 21 0 32 0;
#X connect 22 0 21 0;
#X connect 23 0 24 0;
#X connect 24 0 19 0;
#X connect 24 1 25 0;
#X connect 25 0 23 1;
#X connect 25 0 52 1;
#X connect 26 0 27 0;
#X connect 30 0 5 0;
#X connect 30 1 22 0;
#X connect 31 0 23 1;
#X connect 31 0 52 1;
#X connect 32 0 26 0;
#X connect 33 0 27 0;
#X connect 33 1 2 0;
#X connect 34 0 17 0;
#X connect 34 1 33 0;
#X connect 35 0 16 0;
#X connect 35 1 3 0;
#X connect 35 2 38 0;
#X connect 35 3 1 0;
#X connect 36 0 37 0;
#X connect 37 0 2 0;
#X connect 38 0 40 0;
#X connect 38 1 39 1;
#X connect 39 0 36 0;
#X connect 40 0 47 0;
#X connect 41 0 18 0;
#X connect 41 1 50 0;
#X connect 41 1 52 0;
#X connect 43 0 44 0;
#X connect 44 0 4 0;
#X connect 44 1 46 1;
#X connect 46 0 4 0;
#X connect 47 0 33 1;
#X connect 47 1 39 0;
#X connect 47 2 48 0;
#X connect 48 0 46 0;
#X connect 49 0 8 0;
#X connect 49 1 50 1;
#X connect 50 0 51 0;
#X connect 52 0 21 1;
