#N canvas 667 145 555 364 12;
#X declare -path pddp;
#X obj 152 224 pm-hjh~;
#X obj 171 26 hsl 128 15 50 2000 1 1 empty empty freq -2 -8 0 10 -262144
-1 -1 0 1;
#X obj 24 26 hsl 128 15 0.5 20 0 1 empty empty ratio -2 -8 0 10 -262144
-1 -1 0 1;
#X obj 49 104 *;
#X obj 49 129 osc~;
#X obj 168 46 t b f f;
#X msg 167 106 \$1 20;
#X obj 167 131 line~;
#X obj 318 26 hsl 128 15 0 20 0 1 empty empty index -2 -8 0 10 -262144
-1 -1 0 1;
#X msg 315 46 \$1 20;
#X obj 315 71 line~;
#X obj 380 60 hsl 128 15 0 1 0 1 empty empty feedback -2 -8 0 10 -262144
-1 -1 0 1;
#X msg 377 80 \$1 20;
#X obj 377 105 line~;
#X obj 152 271 ezoutput~;
#X text 317 195 PM (FM) oscillator \; inlets \; modulator signal \;
carrier frequency \; modulation index \; feedback (0-1);
#X obj 319 300 declare -path pddp;
#X connect 0 0 14 0;
#X connect 0 0 14 1;
#X connect 1 0 5 0;
#X connect 2 0 3 0;
#X connect 3 0 4 0;
#X connect 4 0 0 0;
#X connect 5 0 3 0;
#X connect 5 1 3 1;
#X connect 5 2 6 0;
#X connect 6 0 7 0;
#X connect 7 0 0 1;
#X connect 8 0 9 0;
#X connect 9 0 10 0;
#X connect 10 0 0 2;
#X connect 11 0 12 0;
#X connect 12 0 13 0;
#X connect 13 0 0 3;
