#N canvas 548 100 642 585 12;
#X obj 180 47 inlet~ cfreq;
#X obj 276 47 inlet~ index;
#X obj 372 47 inlet~ feedback;
#X obj 56 47 inlet~ modulator;
#X obj 181 73 phasor~;
#X obj 56 151 /~ 6.28319;
#X obj 163 307 +~;
#X obj 121 256 *~;
#X obj 263 391 delwrite~ \$0-fb;
#X obj 268 210 delread4~ \$0-fb;
#X obj 268 160 loadbang;
#X msg 268 185 0;
#X obj 268 235 *~;
#X obj 56 101 +~;
#X obj 163 391 outlet~;
#X obj 163 332 cos~;
#X connect 0 0 4 0;
#X connect 1 0 7 1;
#X connect 2 0 12 1;
#X connect 3 0 13 0;
#X connect 4 0 6 1;
#X connect 5 0 7 0;
#X connect 6 0 15 0;
#X connect 7 0 6 0;
#X connect 9 0 12 0;
#X connect 10 0 11 0;
#X connect 11 0 9 0;
#X connect 12 0 13 1;
#X connect 13 0 5 0;
#X connect 15 0 14 0;
#X connect 15 0 8 0;
