#N canvas 871 172 450 300 12;
#X obj 125 15 inlet;
#X obj 53 144 random;
#X obj 125 40 t b b;
#X obj 157 65 f \$1;
#X obj 106 144 random;
#X obj 159 144 random;
#X obj 73 212 pack f f f;
#X obj 73 237 outlet;
#X obj 157 90 * \$2;
#X obj 106 169 / \$2;
#X obj 159 169 / \$2;
#X obj 53 169 / \$2;
#X obj 182 15 inlet rangetop;
#X obj 289 15 inlet granularity;
#X connect 0 0 2 0;
#X connect 1 0 11 0;
#X connect 2 0 4 0;
#X connect 2 0 1 0;
#X connect 2 0 5 0;
#X connect 2 1 3 0;
#X connect 3 0 8 0;
#X connect 4 0 9 0;
#X connect 5 0 10 0;
#X connect 6 0 7 0;
#X connect 8 0 5 1;
#X connect 8 0 4 1;
#X connect 8 0 1 1;
#X connect 9 0 6 1;
#X connect 10 0 6 2;
#X connect 11 0 6 0;
#X connect 12 0 3 1;
#X connect 13 0 8 1;
#X connect 13 0 10 1;
#X connect 13 0 9 1;
#X connect 13 0 11 1;
