#N canvas 514 65 313 361 12;
#X obj 45 36 inlet;
#X obj 209 36 loadbang;
#X msg 209 61 args 0;
#X obj 209 111 pack 1;
#X obj 209 136 unpack f;
#X obj 45 189 /;
#X obj 45 214 + 0.5;
#X obj 45 239 int;
#X obj 45 264 *, f 6;
#X obj 45 289 outlet;
#X obj 140 36 inlet;
#X obj 45 61 unpack f 1;
#X obj 209 86 pdcontrol;
#X connect 0 0 11 0;
#X connect 1 0 2 0;
#X connect 2 0 12 0;
#X connect 3 0 4 0;
#X connect 4 0 8 1;
#X connect 4 0 5 1;
#X connect 5 0 6 0;
#X connect 6 0 7 0;
#X connect 7 0 8 0;
#X connect 8 0 9 0;
#X connect 10 0 8 1;
#X connect 10 0 5 1;
#X connect 11 0 5 0;
#X connect 11 1 8 1;
#X connect 11 1 5 1;
#X connect 12 0 3 0;
