#N canvas 320 100 899 619 12;
#X obj 278 56 inlet;
#X text 41 169 loop 0/1 \; 1 start \, 0 stop \; reset \; everything
else \, forward to text;
#X obj 65 61 tgl 15 1 empty empty loop 17 7 0 10 -262144 -1 -1 0 1
;
#X msg 326 108 line 0;
#X obj 374 137 select 1 0;
#X obj 281 348 text sequence \$0-abc -w 1;
#X obj 528 83 symbol \$1;
#X msg 528 108 symbol \$1;
#X obj 496 33 loadbang;
#X obj 307 521 outlet;
#X obj 256 521 outlet;
#X obj 367 471 delay;
#X obj 367 496 spigot 1;
#X obj 18 61 tgl 15 0 empty empty run 17 7 0 10 -262144 -1 -1 0 1;
#X obj 420 471 r \$0-run;
#X obj 367 521 s \$0-bang;
#X obj 258 317 r \$0-bang;
#X obj 490 471 spigot 0;
#X obj 543 348 r \$0-loop;
#X obj 65 94 s \$0-loop;
#X obj 18 120 s \$0-run-t;
#X obj 383 108 r \$0-run-t;
#X obj 125 6 r \$0-runR;
#X msg 125 31 set \$1;
#X msg 407 162 0;
#X obj 407 187 s \$0-run;
#X obj 374 212 t b b;
#X msg 406 237 1;
#X obj 406 262 t f f;
#X obj 438 288 s \$0-run;
#X obj 406 313 s \$0-runR;
#X msg 490 496 line 0 \, bang;
#X obj 490 521 s \$0-bang;
#X obj 543 373 t f f;
#X obj 650 446 expr 1 - $f1;
#X obj 597 471 spigot 1;
#X obj 597 521 outlet;
#X msg 650 521 0;
#X obj 650 546 s \$0-runR;
#X msg 258 283 line 0 \, bang;
#X obj 471 187 s \$0-runR;
#X obj 278 81 route loop reset float tempo;
#X obj 550 214 list prepend tempo;
#X obj 550 293 list trim;
#X obj 550 187 s \$0-bang;
#X text 547 165 forward non-matching msgs;
#X text 600 83 arg: text name;
#X obj 202 6 f \$2;
#X obj 496 58 t b b;
#X text 242 6 arg: loop init;
#X obj 256 496 list;
#X obj 256 471 spigot 0;
#X obj 309 446 f;
#X obj 367 373 t b b f f;
#X obj 281 373 t b a;
#X msg 327 399 1;
#X obj 184 348 r \$0-run-t;
#X msg 184 373 0;
#X text 24 472 play/stop logic \; wait time bangs data \; first data
point is invalid \; so \, play/stop status change \; sets 0 on the
spigot \; a data point sets the spigot \; to be opened *next time*
;
#X obj 597 496 t b b b;
#X obj 168 431 r \$0-banglist;
#X obj 685 521 s \$0-banglist;
#X obj 561 33 inlet textname;
#X obj 528 133 t b a;
#X connect 0 0 41 0;
#X connect 2 0 19 0;
#X connect 3 0 5 0;
#X connect 4 0 26 0;
#X connect 4 1 24 0;
#X connect 5 0 54 0;
#X connect 5 1 53 0;
#X connect 5 2 17 0;
#X connect 5 2 35 0;
#X connect 6 0 7 0;
#X connect 7 0 63 0;
#X connect 8 0 48 0;
#X connect 11 0 12 0;
#X connect 12 0 15 0;
#X connect 13 0 20 0;
#X connect 14 0 12 1;
#X connect 16 0 5 0;
#X connect 17 0 31 0;
#X connect 18 0 33 0;
#X connect 21 0 4 0;
#X connect 22 0 23 0;
#X connect 23 0 13 0;
#X connect 24 0 25 0;
#X connect 24 0 40 0;
#X connect 26 0 39 0;
#X connect 26 1 27 0;
#X connect 27 0 28 0;
#X connect 28 0 30 0;
#X connect 28 1 29 0;
#X connect 31 0 32 0;
#X connect 33 0 17 1;
#X connect 33 1 34 0;
#X connect 34 0 35 1;
#X connect 35 0 59 0;
#X connect 37 0 38 0;
#X connect 39 0 5 0;
#X connect 41 0 2 0;
#X connect 41 1 3 0;
#X connect 41 2 4 0;
#X connect 41 3 42 0;
#X connect 41 4 44 0;
#X connect 42 0 43 0;
#X connect 43 0 11 0;
#X connect 47 0 2 0;
#X connect 48 0 47 0;
#X connect 48 1 6 0;
#X connect 50 0 10 0;
#X connect 51 0 50 0;
#X connect 52 0 51 1;
#X connect 53 0 51 0;
#X connect 53 1 52 0;
#X connect 53 2 9 0;
#X connect 53 3 11 0;
#X connect 54 0 55 0;
#X connect 54 1 50 1;
#X connect 55 0 52 1;
#X connect 56 0 57 0;
#X connect 57 0 52 1;
#X connect 59 0 36 0;
#X connect 59 1 37 0;
#X connect 59 2 61 0;
#X connect 60 0 51 0;
#X connect 62 0 7 0;
#X connect 63 0 3 0;
#X connect 63 1 5 1;
#X coords 0 -1 1 1 110 60 1 5 25;
