#N canvas 483 93 615 604 12;
#X declare -lib cyclone;
#X obj 47 29 declare -lib cyclone;
#X obj 47 87 inlet;
#X obj 186 87 inlet;
#X text 45 63 start or 'all';
#X text 192 63 end;
#X obj 237 87 inlet;
#X text 237 63 rate;
#X obj 135 306 pack 0 0 1, f 15;
#X msg 76 257 0 \$1;
#X obj 135 331 t l l;
#N canvas 2 93 376 505 envelope 0;
#X obj 71 54 inlet;
#X obj 275 350 inlet;
#X obj 140 194 * 2;
#X obj 71 144 -;
#X obj 71 194 abs;
#X obj 71 219 t f f;
#X obj 71 414 vline~;
#X obj 71 79 unpack 0 0 0;
#X obj 71 169 /;
#X obj 71 439 outlet~;
#X obj 71 301 pack 0 0 0, f 16;
#X obj 163 169 t f f f;
#X msg 71 326 1 \$3 \, 1 \$1 \$3 \, 0 \$3 \$2;
#X text 30 24 start/end/rate list;
#X obj 125 251 -;
#X obj 71 251 -;
#X obj 163 144 r \$0-envtime;
#X text 88 350 direct forward to vline~;
#X obj 71 276 max 1;
#X obj 125 276 max 1;
#X connect 0 0 7 0;
#X connect 1 0 6 0;
#X connect 2 0 15 1;
#X connect 3 0 8 0;
#X connect 4 0 5 0;
#X connect 5 0 15 0;
#X connect 5 1 14 0;
#X connect 6 0 9 0;
#X connect 7 0 3 0;
#X connect 7 1 3 1;
#X connect 7 2 8 1;
#X connect 8 0 4 0;
#X connect 10 0 12 0;
#X connect 11 0 2 0;
#X connect 11 1 14 1;
#X connect 11 2 10 2;
#X connect 12 0 6 0;
#X connect 14 0 19 0;
#X connect 15 0 18 0;
#X connect 16 0 11 0;
#X connect 18 0 10 0;
#X connect 19 0 10 1;
#X restore 255 383 pd envelope;
#X obj 285 87 inlet;
#X text 283 63 attack/release time;
#X obj 76 232 value;
#X obj 47 437 play~, f 36;
#X msg 419 383 set \$1;
#X obj 135 383 sf-startmsg;
#X obj 373 137 t s s s;
#X obj 47 462 *~, f 30;
#X obj 296 511 outlet;
#X obj 47 511 outlet~;
#N canvas 2 93 330 416 getArgsWithDefault 0;
#X obj 165 97 pdcontrol;
#X obj 76 22 loadbang;
#X msg 165 72 args 0;
#X obj 76 47 t b b b, f 26;
#X msg 255 122 1;
#X obj 76 245 spigot;
#X obj 165 156 t b f;
#X msg 115 196 0;
#X obj 98 128 unpack s f;
#X obj 139 339 outlet;
#X msg 76 270 10;
#X obj 17 339 outlet;
#X connect 0 0 8 0;
#X connect 1 0 3 0;
#X connect 2 0 0 0;
#X connect 3 0 5 0;
#X connect 3 1 2 0;
#X connect 3 2 4 0;
#X connect 4 0 5 1;
#X connect 5 0 10 0;
#X connect 6 0 7 0;
#X connect 6 1 9 0;
#X connect 7 0 5 1;
#X connect 8 0 11 0;
#X connect 8 1 6 0;
#X connect 10 0 9 0;
#X restore 373 87 pd getArgsWithDefault;
#X obj 536 87 inlet;
#X text 528 63 sym table;
#X msg 108 207 symbol \$1dur;
#N canvas 422 105 616 512 routeleft 0;
#X obj 44 48 inlet;
#X obj 172 404 outlet;
#X text 154 425 bang for all;
#X obj 139 98 t a a, f 20;
#X obj 276 123 list split 1;
#X obj 276 148 route symbol float;
#X obj 399 173 print sf-play~_wrong_input;
#X msg 337 173 2;
#X obj 234 267 cyclone/gate 2;
#X obj 50 404 outlet;
#X text 23 425 forward to play~;
#X msg 276 173 1;
#X obj 382 404 outlet;
#X text 366 425 number list;
#X msg 44 98 bang;
#X obj 44 73 route all stop;
#X obj 272 404 outlet;
#X text 270 425 'stop';
#X msg 91 98 bang;
#X connect 0 0 15 0;
#X connect 3 0 8 1;
#X connect 3 1 4 0;
#X connect 4 0 5 0;
#X connect 5 0 11 0;
#X connect 5 1 7 0;
#X connect 5 2 6 0;
#X connect 7 0 8 0;
#X connect 8 0 9 0;
#X connect 8 1 12 0;
#X connect 11 0 8 0;
#X connect 14 0 1 0;
#X connect 15 0 14 0;
#X connect 15 1 18 0;
#X connect 15 2 3 0;
#X connect 18 0 16 0;
#X restore 47 112 pd routeleft;
#X f 13;
#N canvas 2 93 450 300 stopmsgs 0;
#X obj 76 28 inlet;
#X obj 115 92 r \$0-envtime;
#X obj 115 117 t f f;
#X obj 234 153 f;
#X msg 234 178 0 \$1;
#X obj 234 203 outlet;
#X obj 76 153 delay;
#X obj 76 53 t b b, f 23;
#X msg 76 178 stop;
#X obj 76 203 outlet;
#X connect 0 0 7 0;
#X connect 1 0 2 0;
#X connect 2 0 6 1;
#X connect 2 1 3 1;
#X connect 3 0 4 0;
#X connect 4 0 5 0;
#X connect 6 0 8 0;
#X connect 7 0 6 0;
#X connect 7 1 3 0;
#X connect 8 0 9 0;
#X restore 255 196 pd stopmsgs;
#X obj 482 137 s \$0-envtime;
#X obj 285 112 s \$0-envtime;
#X connect 1 0 25 0;
#X connect 2 0 7 1;
#X connect 5 0 7 2;
#X connect 7 0 9 0;
#X connect 8 0 7 0;
#X connect 9 0 16 0;
#X connect 9 1 10 0;
#X connect 10 0 18 1;
#X connect 11 0 28 0;
#X connect 13 0 8 0;
#X connect 14 0 18 0;
#X connect 14 1 19 0;
#X connect 15 0 14 0;
#X connect 16 0 14 0;
#X connect 17 0 24 0;
#X connect 17 1 16 3;
#X connect 17 2 15 0;
#X connect 18 0 20 0;
#X connect 21 0 17 0;
#X connect 21 1 27 0;
#X connect 22 0 17 0;
#X connect 24 0 13 1;
#X connect 25 0 14 0;
#X connect 25 1 13 0;
#X connect 25 2 26 0;
#X connect 25 3 7 0;
#X connect 26 0 14 0;
#X connect 26 1 10 1;
