#N canvas 541 93 517 650 12;
#X declare -lib cyclone;
#X text 37 451 Argument: An identifier for the [value] objects.;
#X text 36 569 Outlet: A "start" message.;
#X obj 39 212 soundfiler2 a1smd;
#X obj 179 212 array define a1smd;
#X msg 39 187 read -resize computers.wav a1smd;
#X obj 39 162 declare -lib cyclone;
#X text 281 187 <-- hit me first;
#X obj 227 256 hsl 128 15 0.25 4 1 0 empty empty rate -2 -8 0 10 -262144
-1 -1 0 1;
#X floatatom 224 276 5 0 0 0 - - -;
#X obj 124 308 pack 0 0 1;
#X obj 39 237 unpack 0 0;
#X obj 124 288 bng 15 250 50 0 empty empty empty 17 7 0 10 -262144
-1 -1;
#X obj 277 358 print;
#X obj 124 358 cyclone/play~ a1smd;
#X obj 124 383 *~ 0.25;
#X obj 124 408 dac~;
#X text 36 27 sf-startmsgd: Produce a "start" message for [cyclone/play~]
;
#X text 36 58 Given a start time within the array (in ms) and a play
duration \, this object outputs a "start" list that you can feed to
[cyclone/play~]. Assuming the array has been loaded by [soundfiler2]
\, this will automatically adapt the times according to the file's
sample rate.;
#X obj 124 333 sf-startmsgd a1smd;
#X text 36 478 Inlets: \; 1 Start in ms \, or a list of "start duration
optional_rate" \; 2 Duration to play in ms \; 3 Rate (2 = 2x faster)
\; 4 Symbol (ID for array stats);
#X connect 2 0 10 0;
#X connect 4 0 2 0;
#X connect 7 0 8 0;
#X connect 8 0 9 2;
#X connect 9 0 18 0;
#X connect 10 1 9 1;
#X connect 11 0 9 0;
#X connect 13 0 14 0;
#X connect 14 0 15 0;
#X connect 14 0 15 1;
#X connect 18 0 12 0;
#X connect 18 0 13 0;
