#N canvas 555 127 537 493 12;
#X obj 67 36 inlet startOrList;
#X obj 195 36 inlet dur;
#X obj 267 36 inlet rate;
#X obj 67 111 t f f;
#X obj 195 111 t f f;
#X obj 227 136 *;
#X text 125 186 end = start + (dur * rate);
#X obj 346 36 inlet tblname;
#X obj 346 86 symbol \$1;
#X obj 355 61 loadbang;
#X msg 346 111 symbol \$1scale;
#X obj 346 136 t b a;
#X obj 346 276 value;
#X obj 99 186 +;
#X obj 99 343 * 1;
#X obj 67 343 * 1;
#X obj 67 404 pack 0 0 0;
#X msg 67 429 start \$1 \$2 \$3;
#X obj 67 454 outlet;
#X obj 67 61 unpack 0 0 0, f 23;
#X msg 258 111 1;
#X obj 99 228 t f b;
#X connect 0 0 19 0;
#X connect 1 0 4 0;
#X connect 2 0 5 1;
#X connect 3 0 15 0;
#X connect 3 1 13 0;
#X connect 4 0 16 2;
#X connect 4 1 5 0;
#X connect 5 0 13 1;
#X connect 7 0 8 0;
#X connect 8 0 10 0;
#X connect 9 0 8 0;
#X connect 9 0 20 0;
#X connect 10 0 11 0;
#X connect 11 0 12 0;
#X connect 11 1 12 1;
#X connect 12 0 14 1;
#X connect 12 0 15 1;
#X connect 13 0 21 0;
#X connect 14 0 16 1;
#X connect 15 0 16 0;
#X connect 16 0 17 0;
#X connect 17 0 18 0;
#X connect 19 0 3 0;
#X connect 19 1 4 0;
#X connect 19 2 5 1;
#X connect 20 0 5 1;
#X connect 21 0 14 0;
#X connect 21 1 12 0;
