#N canvas 568 104 537 493 12;
#X obj 67 36 inlet startOrList;
#X obj 267 36 inlet rate;
#X obj 67 111 t f f;
#X obj 346 36 inlet tblname;
#X obj 346 86 symbol \$1;
#X obj 355 61 loadbang;
#X msg 346 111 symbol \$1scale;
#X obj 346 136 t b a;
#X obj 346 211 value;
#X obj 99 286 * 1;
#X obj 67 286 * 1;
#X obj 67 347 pack 0 0 0;
#X msg 67 372 start \$1 \$2 \$3;
#X obj 67 397 outlet;
#X obj 67 61 unpack 0 0 0, f 25;
#X msg 269 111 1;
#X obj 195 36 inlet end;
#X text 246 328 dur = (end - start) / rate;
#X obj 193 161 swap;
#X obj 193 186 -;
#X obj 193 211 /, f 5;
#X obj 195 111 t f f b;
#X obj 193 236 abs;
#X connect 0 0 14 0;
#X connect 1 0 20 1;
#X connect 2 0 10 0;
#X connect 2 1 18 0;
#X connect 3 0 4 0;
#X connect 4 0 6 0;
#X connect 5 0 4 0;
#X connect 5 0 15 0;
#X connect 6 0 7 0;
#X connect 7 0 8 0;
#X connect 7 1 8 1;
#X connect 8 0 9 1;
#X connect 8 0 10 1;
#X connect 9 0 11 1;
#X connect 10 0 11 0;
#X connect 11 0 12 0;
#X connect 12 0 13 0;
#X connect 14 0 2 0;
#X connect 14 1 21 0;
#X connect 14 2 20 1;
#X connect 15 0 20 1;
#X connect 16 0 21 0;
#X connect 18 0 19 0;
#X connect 18 1 19 1;
#X connect 19 0 20 0;
#X connect 20 0 22 0;
#X connect 21 0 9 0;
#X connect 21 1 18 1;
#X connect 21 2 8 0;
#X connect 22 0 11 2;
