#N canvas 837 109 450 300 12;
#X obj 65 45 inlet ms;
#X obj 214 45 inlet tblname;
#X obj 88 179 value;
#X obj 120 129 symbol \$1scale;
#X msg 214 70 symbol \$1scale;
#X obj 65 70 t f b b;
#X obj 65 212 *;
#X obj 65 237 outlet;
#X connect 0 0 5 0;
#X connect 1 0 4 0;
#X connect 2 0 6 1;
#X connect 3 0 2 1;
#X connect 4 0 3 0;
#X connect 5 0 6 0;
#X connect 5 1 2 0;
#X connect 5 2 3 0;
#X connect 6 0 7 0;
