#N canvas 467 104 716 526 12;
#X obj 38 37 inlet list;
#X obj 38 62 soundfiler;
#X obj 105 87 unpack 0;
#X obj 522 298 samplerate~;
#X obj 504 323 /;
#X obj 285 298 /;
#X obj 285 323 * 1000;
#X obj 38 112 t b f f;
#X obj 321 452 outlet;
#X obj 386 37 inlet tblname;
#X obj 386 62 symbol \$1;
#X obj 356 12 loadbang;
#X msg 536 129 symbol \$1scale;
#X msg 445 129 symbol \$1sr;
#X msg 347 129 symbol \$1dur;
#X msg 228 129 symbol \$1frames;
#X obj 504 369 value;
#X obj 413 302 value;
#X obj 285 369 value;
#X obj 196 369 value;
#X obj 386 87 t a a a a a;
#X msg 414 184 symbol \$1sr001;
#X obj 369 302 value;
#X obj 105 112 t f f f f b;
#X obj 321 427 pack 0 0 0 0 0;
#X obj 38 162 t b b b b b;
#X obj 360 184 * 0.001;
#X obj 504 225 r pd-dsp-started;
#X obj 504 250 t b b b;
#X connect 0 0 1 0;
#X connect 1 0 7 0;
#X connect 1 1 2 0;
#X connect 2 0 23 0;
#X connect 3 0 4 1;
#X connect 4 0 16 0;
#X connect 5 0 6 0;
#X connect 6 0 18 0;
#X connect 7 0 25 0;
#X connect 7 1 19 0;
#X connect 7 2 5 0;
#X connect 9 0 10 0;
#X connect 10 0 20 0;
#X connect 11 0 10 0;
#X connect 12 0 16 1;
#X connect 13 0 17 1;
#X connect 14 0 18 1;
#X connect 15 0 19 1;
#X connect 16 0 24 4;
#X connect 17 0 24 2;
#X connect 18 0 24 1;
#X connect 19 0 24 0;
#X connect 20 0 15 0;
#X connect 20 1 14 0;
#X connect 20 2 21 0;
#X connect 20 3 13 0;
#X connect 20 4 12 0;
#X connect 21 0 22 1;
#X connect 22 0 24 3;
#X connect 23 0 5 1;
#X connect 23 1 26 0;
#X connect 23 2 17 0;
#X connect 23 3 4 0;
#X connect 23 4 3 0;
#X connect 24 0 8 0;
#X connect 25 0 19 0;
#X connect 25 1 18 0;
#X connect 25 2 22 0;
#X connect 25 3 17 0;
#X connect 25 4 16 0;
#X connect 26 0 22 0;
#X connect 27 0 28 0;
#X connect 28 0 4 0;
#X connect 28 1 3 0;
