#N canvas 2 93 343 403 12;
#X obj 61 34 inlet;
#X obj 61 59 route pop push clear;
#X msg 152 84 bang;
#X obj 61 181 list store;
#X msg 61 84 bang;
#X obj 61 206 t a a;
#X obj 128 231 list length;
#X obj 128 256 - 1;
#X obj 61 281 list split;
#X obj 94 342 outlet;
#X msg 95 132 append \$1;
#X obj 173 132 r list_store_\$0;
#X obj 173 318 s list_store_\$0;
#X connect 0 0 1 0;
#X connect 1 0 4 0;
#X connect 1 1 10 0;
#X connect 1 2 2 0;
#X connect 1 3 10 0;
#X connect 2 0 3 1;
#X connect 3 0 5 0;
#X connect 4 0 3 0;
#X connect 5 0 8 0;
#X connect 5 1 6 0;
#X connect 6 0 7 0;
#X connect 7 0 8 1;
#X connect 8 0 12 0;
#X connect 8 1 9 0;
#X connect 8 2 12 0;
#X connect 10 0 3 0;
#X connect 11 0 3 1;
