#N canvas 399 76 508 542 12;
#X obj 33 33 inlet;
#X obj 33 58 route float;
#X obj 107 91 route tempo;
#N canvas 645 352 478 300 args 0;
#X obj 51 35 loadbang;
#X msg 51 60 args 0;
#X obj 51 85 pdcontrol;
#X obj 51 110 t a b, f 8;
#X msg 104 135 symbol msec;
#X text 209 56 this is a damned stupid hack because you can't put a
default symbol into pack or unpack \, so what we will do instead (horrifyingly)
is bang a default symbol in first and then let it be overridden if
necessary, f 32;
#X obj 51 185 outlet;
#X obj 51 160 pack 1 s;
#X connect 0 0 1 0;
#X connect 1 0 2 0;
#X connect 2 0 3 0;
#X connect 3 0 7 0;
#X connect 3 1 4 0;
#X connect 4 0 7 1;
#X connect 7 0 6 0;
#X restore 244 91 pd args;
#X obj 107 157 unpack f s;
#N canvas 147 80 771 655 decodeTimeUnit 0;
#X obj 36 33 inlet;
#X msg 173 380 1;
#X msg 337 380 1000;
#X msg 419 380 60000;
#X msg 501 355 bang;
#X obj 501 380 samplerate~;
#X msg 501 405 1000 \$1;
#X obj 501 430 /;
#X obj 419 483 outlet;
#X obj 565 354 r pd-dsp-started;
#X msg 380 380 0;
#X msg 689 354 1;
#X obj 380 556 s usingSamples\$0;
#X obj 36 83 list fromsymbol;
#X obj 36 108 route 112, f 20;
#X obj 36 133 route 101, f 11;
#X obj 36 158 route 114;
#X obj 173 205 list split 3;
#X obj 173 230 list tosymbol;
#X obj 173 255 list trim;
#X obj 173 280 route mil mse sec min sam, f 59;
#X obj 36 58 t a a, f 22;
#X obj 74 482 symbol;
#X msg 74 457 bang;
#X obj 74 507 print error: wrong unit;
#X connect 0 0 21 0;
#X connect 1 0 8 0;
#X connect 2 0 8 0;
#X connect 3 0 8 0;
#X connect 4 0 5 0;
#X connect 5 0 6 0;
#X connect 6 0 7 0;
#X connect 7 0 8 0;
#X connect 9 0 5 0;
#X connect 10 0 12 0;
#X connect 11 0 12 0;
#X connect 13 0 14 0;
#X connect 14 0 15 0;
#X connect 14 1 17 0;
#X connect 15 0 16 0;
#X connect 15 1 23 0;
#X connect 16 0 17 0;
#X connect 16 1 23 0;
#X connect 17 0 18 0;
#X connect 18 0 19 0;
#X connect 19 0 20 0;
#X connect 20 0 10 0;
#X connect 20 0 1 0;
#X connect 20 1 10 0;
#X connect 20 1 1 0;
#X connect 20 2 10 0;
#X connect 20 2 2 0;
#X connect 20 3 10 0;
#X connect 20 3 3 0;
#X connect 20 4 11 0;
#X connect 20 4 4 0;
#X connect 20 5 23 0;
#X connect 21 0 13 0;
#X connect 21 1 22 1;
#X connect 22 0 24 0;
#X connect 23 0 22 0;
#X restore 174 235 pd decodeTimeUnit;
#X obj 107 279 pack f f, f 10;
#X msg 107 304 \$2 \$1;
#X obj 107 329 /;
#X obj 33 437 *, f 11;
#X obj 170 329 r pd-dsp-started;
#X obj 170 368 spigot 0, f 18;
#X obj 293 329 r usingSamples\$0;
#X obj 33 462 outlet;
#X text 153 403 this is muddled \, doesn't recalc the quotient;
#X connect 0 0 1 0;
#X connect 1 0 9 0;
#X connect 1 1 2 0;
#X connect 2 0 4 0;
#X connect 3 0 4 0;
#X connect 4 0 6 0;
#X connect 4 1 5 0;
#X connect 5 0 6 1;
#X connect 6 0 7 0;
#X connect 7 0 8 0;
#X connect 8 0 9 1;
#X connect 9 0 13 0;
#X connect 10 0 11 0;
#X connect 11 0 9 0;
#X connect 12 0 11 1;
