#N canvas 535 64 681 599 12;
#X obj 441 87 inlet;
#N canvas 0 0 450 300 push 0;
#X obj 74 36 inlet;
#X obj 74 161 outlet;
#X obj 74 61 list prepend push;
#X obj 74 86 list trim;
#X connect 0 0 2 0;
#X connect 2 0 3 0;
#X connect 3 0 1 0;
#X restore 514 137 pd push;
#X obj 162 407 moses, f 25;
#X obj 162 338 t a a, f 16;
#X obj 162 363 unpack 0;
#X obj 236 562 s \$0-prio;
#X obj 162 537 outlet;
#X text 101 15 messages: \; push time msg \; time = tick \; tempo =
tempo message \; name symbol;
#N canvas 132 29 450 382 delay-and-out 0;
#X obj 64 60 inlet;
#X text 42 27 time to delay;
#X obj 240 60 inlet;
#X text 197 27 list to delay;
#X obj 166 257 list store, f 11;
#X obj 166 282 outlet;
#X obj 118 60 r \$0-tempo;
#X obj 64 110 delay;
#X obj 64 135 t b b b, f 15;
#X obj 115 160 s \$0-checktime;
#X text 224 160 update "now";
#X msg 64 160 top;
#X obj 64 185 s \$0-prio;
#X text 61 207 check next;
#X text 127 308 must output first \, otherwise this list gets overwritten
, f 30;
#X connect 0 0 7 0;
#X connect 2 0 4 1;
#X connect 4 0 5 0;
#X connect 6 0 7 0;
#X connect 7 0 8 0;
#X connect 8 0 11 0;
#X connect 8 1 9 0;
#X connect 8 2 4 0;
#X connect 11 0 12 0;
#X restore 162 487 pd delay-and-out;
#X obj 162 462 -, f 25;
#X text 464 379 pass thru messages up to (not including) tick time
+ interval, f 22;
#X text 287 487 delay time = event time - tick time;
#X obj 26 187 s \$0-tempo;
#X obj 26 137 list prepend tempo;
#X obj 26 162 list trim;
#X text 4 294 "now" is last tick \; output vs last time \; then posttick
and re-tick, f 21;
#X obj 514 162 t b b a;
#X obj 537 204 s \$0-checktime;
#X obj 171 137 t b b, f 7;
#X msg 217 162 0;
#X msg 171 162 clear;
#X obj 162 512 t a b, f 11;
#X obj 26 112 route tempo clear, f 42;
#X obj 26 87 inlet;
#X obj 334 437 r \$0-elapsed;
#X obj 334 382 r \$0-end-of-slice;
#N canvas 218 29 450 300 handle-tick 0;
#X obj 43 28 inlet;
#X text 91 28 tick: tickTime tickLength;
#X obj 213 78 +;
#X obj 299 78 unpack 0;
#X obj 299 103 value \$0-now;
#X obj 43 53 t b b a a, f 37;
#N canvas 57 421 450 300 postticktime 0;
#X obj 49 50 inlet;
#X text 29 26 bang reset;
#X obj 159 50 r \$0-checktime;
#X text 190 26 bang;
#X obj 298 50 r \$0-tempo;
#X obj 81 134 timer;
#X obj 81 159 t f b f, f 33;
#X obj 309 184 outlet;
#X text 309 210 offset;
#X obj 195 184 value \$0-now;
#X obj 81 209 +, f 16;
#X obj 81 234 outlet;
#X text 55 257 real elapsed;
#X obj 49 75 t b b;
#X msg 49 100 0;
#X connect 0 0 13 0;
#X connect 2 0 5 1;
#X connect 4 0 5 0;
#X connect 5 0 6 0;
#X connect 6 0 10 0;
#X connect 6 1 9 0;
#X connect 6 2 7 0;
#X connect 9 0 10 1;
#X connect 10 0 11 0;
#X connect 13 0 14 0;
#X connect 13 1 5 0;
#X connect 14 0 6 0;
#X restore 128 153 pd postticktime;
#X msg 43 178 top;
#X obj 128 178 s \$0-elapsed;
#X obj 213 128 s \$0-end-of-slice;
#X obj 43 203 s \$0-prio;
#X connect 0 0 5 0;
#X connect 2 0 9 0;
#X connect 3 0 4 0;
#X connect 5 0 7 0;
#X connect 5 1 6 0;
#X connect 5 2 2 0;
#X connect 5 3 3 0;
#X connect 6 0 8 0;
#X connect 7 0 10 0;
#X restore 317 137 pd handle-tick;
#X obj 162 288 hjh-prioqueue;
#N canvas 0 0 450 300 0-prio-feedback 0;
#X obj 58 38 r \$0-prio;
#X obj 58 63 route pop, f 20;
#X obj 195 88 t a b;
#X msg 226 113 1;
#X msg 104 113 0;
#X obj 58 216 outlet;
#X obj 149 216 outlet;
#X obj 58 88 t b b, f 7;
#X msg 58 113 pop;
#X connect 0 0 1 0;
#X connect 1 0 7 0;
#X connect 1 1 2 0;
#X connect 2 0 5 0;
#X connect 2 1 3 0;
#X connect 3 0 6 0;
#X connect 4 0 6 0;
#X connect 7 0 8 0;
#X connect 7 1 4 0;
#X connect 8 0 5 0;
#X restore 253 199 pd 0-prio-feedback;
#X obj 162 313 spigot 1, f 31;
#X text 402 265 moderate hack: "pop" returns data but we don't need
to process it below this point \, suppress only for "pop", f 29;
#X obj 441 112 route clear;
#X msg 441 181 clear;
#X text 357 45 redundant to allow 'clear' in right inlet \; however
\, it simplifies initialization;
#X msg 499 204 top;
#X msg 236 537 pop;
#X connect 0 0 31 0;
#X connect 1 0 16 0;
#X connect 2 0 9 0;
#X connect 3 0 4 0;
#X connect 3 1 8 1;
#X connect 4 0 2 0;
#X connect 8 0 21 0;
#X connect 9 0 8 0;
#X connect 13 0 14 0;
#X connect 14 0 12 0;
#X connect 16 0 34 0;
#X connect 16 1 17 0;
#X connect 16 2 27 0;
#X connect 18 0 20 0;
#X connect 18 1 19 0;
#X connect 19 0 2 1;
#X connect 20 0 27 0;
#X connect 21 0 6 0;
#X connect 21 1 35 0;
#X connect 22 0 13 0;
#X connect 22 1 18 0;
#X connect 22 2 26 0;
#X connect 23 0 22 0;
#X connect 24 0 9 1;
#X connect 25 0 2 1;
#X connect 27 0 29 0;
#X connect 28 0 27 0;
#X connect 28 1 29 1;
#X connect 29 0 3 0;
#X connect 31 0 32 0;
#X connect 31 1 1 0;
#X connect 32 0 27 0;
#X connect 34 0 27 0;
#X connect 35 0 5 0;
