#N canvas 535 64 681 599 12;
#X declare -path pdcontainer -lib PDContainer;
#X obj 514 112 inlet;
#N canvas 0 0 450 300 push 0;
#X obj 74 36 inlet;
#X obj 74 61 t a a, f 16;
#X obj 74 86 unpack 0;
#X obj 74 111 * -1;
#X msg 74 136 push \$1;
#X obj 74 161 outlet;
#X obj 183 161 outlet;
#X connect 0 0 1 0;
#X connect 1 0 2 0;
#X connect 1 1 6 0;
#X connect 2 0 3 0;
#X connect 3 0 4 0;
#X connect 4 0 5 0;
#X restore 514 137 pd push;
#X obj 162 382 moses, f 25;
#X msg 499 204 top;
#X obj 162 313 t a a, f 16;
#X obj 162 338 unpack 0;
#X obj 236 541 s \$0-prio;
#X msg 236 516 pop;
#X obj 162 516 outlet;
#X text 504 15 messages: \; push time msg \; time = tick \; tempo =
tempo message \; name symbol;
#N canvas 132 29 450 382 delay-and-out 0;
#X obj 64 60 inlet;
#X text 42 27 time to delay;
#X obj 240 60 inlet;
#X text 197 27 list to delay;
#X obj 166 257 list store, f 11;
#X obj 166 282 outlet;
#X obj 118 60 r \$0-tempo;
#X obj 64 110 delay;
#X obj 64 135 t b b b, f 15;
#X obj 115 160 s \$0-checktime;
#X text 224 160 update "now";
#X msg 64 160 top;
#X obj 64 185 s \$0-prio;
#X text 61 207 check next;
#X text 127 308 must output first \, otherwise this list gets overwritten
, f 30;
#X connect 0 0 7 0;
#X connect 2 0 4 1;
#X connect 4 0 5 0;
#X connect 6 0 7 0;
#X connect 7 0 8 0;
#X connect 8 0 11 0;
#X connect 8 1 9 0;
#X connect 8 2 4 0;
#X connect 11 0 12 0;
#X restore 162 466 pd delay-and-out;
#X obj 162 441 -, f 25;
#X text 464 354 pass thru messages up to (not including) tick time
+ interval, f 22;
#X text 287 466 delay time = event time - tick time;
#X obj 26 187 s \$0-tempo;
#X obj 26 137 list prepend tempo;
#X obj 26 162 list trim;
#X text 4 294 "now" is last tick \; output vs last time \; then posttick
and re-tick, f 21;
#X obj 514 162 t b b a;
#X obj 537 204 s \$0-checktime;
#X obj 171 137 t b b, f 7;
#X msg 217 162 0;
#X msg 171 162 clear;
#X obj 162 491 t a b, f 11;
#X obj 162 288 h_prioqueue \$0-queue, f 62;
#X obj 26 112 route tempo clear, f 42;
#X obj 26 87 inlet;
#X obj 334 416 r \$0-elapsed;
#X obj 334 357 r \$0-end-of-slice;
#N canvas 218 29 450 300 handle-tick 0;
#X obj 43 28 inlet;
#X text 91 28 tick: tickTime tickLength;
#X obj 213 78 +;
#X obj 299 78 unpack 0;
#X obj 299 103 value \$0-now;
#X obj 43 53 t b b a a, f 37;
#N canvas 57 421 450 300 postticktime 0;
#X obj 49 50 inlet;
#X text 29 26 bang reset;
#X obj 159 50 r \$0-checktime;
#X text 190 26 bang;
#X obj 298 50 r \$0-tempo;
#X obj 81 134 timer;
#X obj 81 159 t f b f, f 33;
#X obj 309 184 outlet;
#X text 309 210 offset;
#X obj 195 184 value \$0-now;
#X obj 81 209 +, f 16;
#X obj 81 234 outlet;
#X text 55 257 real elapsed;
#X obj 49 75 t b b;
#X msg 49 100 0;
#X connect 0 0 13 0;
#X connect 2 0 5 1;
#X connect 4 0 5 0;
#X connect 5 0 6 0;
#X connect 6 0 10 0;
#X connect 6 1 9 0;
#X connect 6 2 7 0;
#X connect 9 0 10 1;
#X connect 10 0 11 0;
#X connect 13 0 14 0;
#X connect 13 1 5 0;
#X connect 14 0 6 0;
#X restore 128 153 pd postticktime;
#X msg 43 178 top;
#X obj 128 178 s \$0-elapsed;
#X obj 213 128 s \$0-end-of-slice;
#X obj 43 203 s \$0-prio;
#X connect 0 0 5 0;
#X connect 2 0 9 0;
#X connect 3 0 4 0;
#X connect 5 0 7 0;
#X connect 5 1 6 0;
#X connect 5 2 2 0;
#X connect 5 3 3 0;
#X connect 6 0 8 0;
#X connect 7 0 10 0;
#X restore 317 137 pd handle-tick;
#X obj 181 238 r \$0-prio;
#X obj 49 29 declare -path pdcontainer -lib PDContainer;
#X connect 0 0 1 0;
#X connect 1 0 18 0;
#X connect 1 1 24 1;
#X connect 2 0 11 0;
#X connect 3 0 24 0;
#X connect 4 0 5 0;
#X connect 4 1 10 1;
#X connect 5 0 2 0;
#X connect 7 0 6 0;
#X connect 10 0 23 0;
#X connect 11 0 10 0;
#X connect 15 0 16 0;
#X connect 16 0 14 0;
#X connect 18 0 3 0;
#X connect 18 1 19 0;
#X connect 18 2 24 0;
#X connect 20 0 22 0;
#X connect 20 1 21 0;
#X connect 21 0 2 1;
#X connect 22 0 24 0;
#X connect 23 0 8 0;
#X connect 23 1 7 0;
#X connect 24 0 4 0;
#X connect 25 0 15 0;
#X connect 25 1 20 0;
#X connect 25 2 29 0;
#X connect 26 0 25 0;
#X connect 27 0 11 1;
#X connect 28 0 2 1;
#X connect 30 0 24 0;
