#N canvas 56 222 450 286 12;
#X obj 52 40 inlet~;
#X obj 52 65 *~ 1e+32;
#X obj 52 90 clip~ 0 1;
#X obj 52 115 rzero~ 1;
#X obj 52 140 clip~ 0 1;
#X obj 52 165 fexpr~ (1 - (2*$y1[-1])) * $x1[0] + $y1[-1];
#X obj 52 190 outlet~;
#X connect 0 0 1 0;
#X connect 1 0 2 0;
#X connect 2 0 3 0;
#X connect 3 0 4 0;
#X connect 4 0 5 0;
#X connect 5 0 6 0;
