#N canvas 56 222 555 286 12;
#X obj 52 40 inlet~;
#X obj 52 65 *~ 1e+32;
#X obj 52 90 clip~ 0 1;
#X obj 52 115 rzero~ 1;
#X obj 52 140 clip~ 0 1;
#X obj 52 190 outlet~;
#X obj 469 40 inlet;
#X obj 380 40 loadbang;
#X msg 380 65 args 0;
#X obj 380 90 pdcontrol;
#X obj 380 115 f 2;
#X obj 52 165 fexpr~ (fmod($y1[-1] + 1 \, $f2) - $y1[-1]) * $x1[0]
+ $y1[-1];
#X connect 0 0 1 0;
#X connect 1 0 2 0;
#X connect 2 0 3 0;
#X connect 3 0 4 0;
#X connect 4 0 11 0;
#X connect 6 0 11 1;
#X connect 7 0 8 0;
#X connect 8 0 9 0;
#X connect 9 0 10 0;
#X connect 10 0 11 1;
#X connect 11 0 5 0;
