#N canvas 402 224 582 529 12;
#X obj 52 40 inlet~;
#X obj 52 65 *~ 1e+32;
#X obj 52 90 clip~ 0 1;
#X obj 52 357 rpole~ 1, f 9;
#X obj 52 115 rzero~ 1;
#X obj 52 140 clip~ 0 1;
#X obj 52 457 outlet~;
#X obj 255 40 inlet;
#X obj 255 115 f;
#X obj 340 40 array define dirac\$0;
#X obj 339 65 loadbang;
#X obj 130 179 tabplay~ dirac\$0;
#X obj 371 140 s dirac\$0;
#X obj 339 90 t b b;
#X obj 255 140 t b f f, f 10;
#X obj 68 280 *~;
#X obj 288 206 * -1;
#X obj 68 305 +~, f 8;
#X text 134 296 normally reset value should be 0 \; but you can override
, f 34;
#X msg 371 115 resize 2 \, 0 1 0;
#X obj 76 178 sig~ 1;
#X obj 112 225 -~;
#X obj 52 424 expr~ fmod($v1 \, $f2);
#X obj 189 40 inlet;
#X obj 406 273 loadbang;
#X msg 406 298 args 0;
#X obj 406 348 f 2;
#X obj 406 323 pdcontrol;
#X connect 0 0 1 0;
#X connect 1 0 2 0;
#X connect 2 0 4 0;
#X connect 3 0 22 0;
#X connect 4 0 5 0;
#X connect 5 0 3 0;
#X connect 7 0 8 0;
#X connect 8 0 14 0;
#X connect 10 0 13 0;
#X connect 11 0 21 1;
#X connect 13 0 8 0;
#X connect 13 1 19 0;
#X connect 14 0 11 0;
#X connect 14 1 16 0;
#X connect 14 2 17 1;
#X connect 15 0 17 0;
#X connect 16 0 15 1;
#X connect 17 0 3 0;
#X connect 19 0 12 0;
#X connect 20 0 21 0;
#X connect 21 0 15 0;
#X connect 21 0 3 1;
#X connect 22 0 6 0;
#X connect 23 0 22 1;
#X connect 24 0 25 0;
#X connect 25 0 27 0;
#X connect 26 0 22 1;
#X connect 27 0 26 0;
