#N canvas 475 55 553 734 12;
#X text 44 33 toggleff~ - a flip-flop toggle responding to signal-rate
triggers - hjh;
#X text 45 76 When a trigger arrives at the signal input \, toggleff~
flips its state from 0 to 1 or 1 to 0;
#X obj 71 332 osc~ 5;
#X obj 71 533 toggleff~, f 24;
#X obj 71 558 *~ 400;
#X obj 71 583 +~ 300;
#X obj 71 608 osc~;
#X text 44 214 This version works by counting pulses. If the count
gets too large \, it may exhibit erratic behavior (after some hours).
For this reason \, the right inlet will reset the count.;
#X obj 161 332 phasor~ 3;
#X text 231 357 differential: occasional negative spikes;
#X obj 161 382 *~ -1;
#N canvas 475 283 450 300 audioswitch 0;
#X obj 42 38 inlet~;
#X obj 123 38 inlet~;
#X obj 210 38 inlet;
#X obj 123 153 *~;
#X obj 42 153 *~;
#X obj 60 100 == 0;
#X obj 82 213 outlet~;
#X connect 0 0 4 0;
#X connect 1 0 3 0;
#X connect 2 0 3 1;
#X connect 2 0 5 0;
#X connect 3 0 6 0;
#X connect 4 0 6 0;
#X connect 5 0 4 1;
#X restore 71 455 pd audioswitch;
#X obj 71 633 *~ 0.1;
#X obj 59 675 dac~;
#X obj 166 424 hradio 15 1 1 2 empty empty empty 0 -8 0 10 #fcfcfc
#000000 #000000 0;
#X obj 161 357 rzero~ 1;
#X obj 236 451 bng 15 250 50 0 empty empty reset\\\ immediately 17
7 0 10 #fcfcfc #000000 #000000;
#X text 208 382 flip them to positive spikes;
#X floatatom 153 502 5 2 7 2 cycle\ length - - 0;
#X text 45 121 A trigger is defined as a transition from nonpositive
(y <= 0) to strictly positive (y > 0). osc~ has one such transition
per cycle. phasor~ has no values <= 0 \, so it cannot be used directly.
However \, the inverse of its differential may be used.;
#X text 45 275 A toggle implies two states. You can specify a different
cycle length in the middle inlet or as an argument.;
#X text 252 533 or [toggleff~ 2];
#X connect 2 0 11 0;
#X connect 3 0 4 0;
#X connect 4 0 5 0;
#X connect 5 0 6 0;
#X connect 6 0 12 0;
#X connect 8 0 15 0;
#X connect 10 0 11 1;
#X connect 11 0 3 0;
#X connect 12 0 13 0;
#X connect 12 0 13 1;
#X connect 14 0 11 2;
#X connect 15 0 10 0;
#X connect 16 0 3 2;
#X connect 18 0 3 1;
