#N canvas 402 224 582 529 12;
#X obj 52 40 inlet~;
#X obj 52 65 *~ 1e+32;
#X obj 52 90 clip~ 0 1;
#X obj 52 357 rpole~ 1, f 9;
#X obj 52 382 *~ 0.5;
#X obj 52 407 wrap~;
#X obj 52 432 *~ 2;
#X obj 52 115 rzero~ 1;
#X obj 52 140 clip~ 0 1;
#X obj 52 457 outlet~;
#X obj 221 40 inlet;
#X obj 221 115 f;
#X obj 306 40 array define dirac\$0;
#X obj 305 65 loadbang;
#X obj 130 179 tabplay~ dirac\$0;
#X obj 337 140 s dirac\$0;
#X obj 305 90 t b b;
#X obj 221 140 t b f f, f 10;
#X obj 68 280 *~;
#X obj 254 206 * -1;
#X obj 68 305 +~, f 8;
#X text 166 296 normally reset value should be 0 \; but you can override
;
#X msg 337 115 resize 2 \, 0 1 0;
#X obj 76 178 sig~ 1;
#X obj 112 225 -~;
#X connect 0 0 1 0;
#X connect 1 0 2 0;
#X connect 2 0 7 0;
#X connect 3 0 4 0;
#X connect 4 0 5 0;
#X connect 5 0 6 0;
#X connect 6 0 9 0;
#X connect 7 0 8 0;
#X connect 8 0 3 0;
#X connect 10 0 11 0;
#X connect 11 0 17 0;
#X connect 13 0 16 0;
#X connect 14 0 24 1;
#X connect 16 0 11 0;
#X connect 16 1 22 0;
#X connect 17 0 14 0;
#X connect 17 1 19 0;
#X connect 17 2 20 1;
#X connect 18 0 20 0;
#X connect 19 0 18 1;
#X connect 20 0 3 0;
#X connect 22 0 15 0;
#X connect 23 0 24 0;
#X connect 24 0 18 0;
#X connect 24 0 3 1;
