#N canvas 436 93 581 652 12;
#X declare -path vstplugin~;
#X obj 150 105 inlet msgs;
#X obj 251 105 inlet~;
#X obj 302 105 inlet~;
#X obj 353 29 inlet name;
#X obj 432 29 loadbang;
#X obj 353 80 symbol \$1;
#X obj 353 207 makefilename %s;
#X msg 315 315 open -e \$1;
#X obj 90 592 declare -path vstplugin~;
#X obj 197 424 vstplugin~;
#X obj 172 492 outlet~;
#X obj 230 492 outlet~;
#X obj 287 492 outlet;
#X obj 338 492 route open;
#X obj 338 517 route 0 1;
#X obj 490 130 float \$2;
#X obj 483 321 spigot;
#X msg 368 542 bang;
#X obj 16 34 tgl 15 0 empty empty empty 17 7 0 10 -262144 -1 -1 0 1
;
#X obj 16 54 bng 15 250 50 0 empty empty empty 17 7 0 10 -262144 -1
-1;
#X obj 16 74 bng 15 250 50 0 empty empty empty 17 7 0 10 -262144 -1
-1;
#X text 34 72 MIDI panic;
#X msg 483 371 vis 1;
#X obj 483 346 t b b;
#X msg 86 176 vis \$1;
#X text 33 31 vst gui;
#X msg 16 205 128;
#X obj 16 180 t b b;
#X msg 48 205 0;
#X obj 16 230 until;
#X obj 16 255 f;
#X obj 16 280 t f f;
#X obj 76 255 + 1;
#X msg 16 305 midi_note 1 \$1 0;
#X msg 515 396 1;
#X obj 353 180 openpanel;
#X obj 353 130 route ask;
#X msg 353 155 bang;
#X msg 353 105 \$1;
#X text 382 105 strip type symbol;
#X obj 150 130 route panic;
#X obj 264 449 t a a a;
#X obj 371 424 list prepend set;
#X obj 371 449 list trim;
#X obj 413 155 symbol;
#X symbolatom 115 72 21 0 0 0 - - -;
#X msg 338 567 loading_failed;
#X text 34 52 list presets (connect R outlet);
#X msg 86 205 preset_list;
#X obj 490 155 t f f;
#X obj 353 232 list prepend, f 20;
#X obj 353 257 list trim;
#X obj 353 282 route 1;
#X obj 432 54 t b b;
#X msg 490 207 \$1 symbol;
#X msg 399 315 open \$3;
#X connect 0 0 40 0;
#X connect 1 0 9 0;
#X connect 2 0 9 1;
#X connect 3 0 5 0;
#X connect 4 0 53 0;
#X connect 5 0 38 0;
#X connect 6 0 50 0;
#X connect 7 0 9 0;
#X connect 9 0 10 0;
#X connect 9 1 11 0;
#X connect 9 2 41 0;
#X connect 13 0 14 0;
#X connect 14 0 46 0;
#X connect 14 1 17 0;
#X connect 15 0 49 0;
#X connect 16 0 23 0;
#X connect 17 0 16 0;
#X connect 18 0 24 0;
#X connect 19 0 48 0;
#X connect 20 0 27 0;
#X connect 22 0 9 0;
#X connect 23 0 22 0;
#X connect 23 1 34 0;
#X connect 24 0 9 0;
#X connect 26 0 29 0;
#X connect 27 0 26 0;
#X connect 27 1 28 0;
#X connect 28 0 30 1;
#X connect 29 0 30 0;
#X connect 30 0 31 0;
#X connect 31 0 33 0;
#X connect 31 1 32 0;
#X connect 32 0 30 1;
#X connect 33 0 9 0;
#X connect 34 0 18 0;
#X connect 35 0 6 0;
#X connect 36 0 37 0;
#X connect 36 1 44 0;
#X connect 37 0 35 0;
#X connect 38 0 36 0;
#X connect 40 0 20 0;
#X connect 40 1 9 0;
#X connect 41 0 13 0;
#X connect 41 1 12 0;
#X connect 41 2 42 0;
#X connect 42 0 43 0;
#X connect 43 0 45 0;
#X connect 44 0 6 0;
#X connect 46 0 42 0;
#X connect 48 0 9 0;
#X connect 49 0 54 0;
#X connect 49 1 16 1;
#X connect 50 0 51 0;
#X connect 51 0 52 0;
#X connect 52 0 7 0;
#X connect 52 1 55 0;
#X connect 53 0 5 0;
#X connect 53 1 15 0;
#X connect 54 0 50 1;
#X connect 55 0 9 0;
#X coords 0 -1 1 1 260 85 1 10 10;
