#N canvas 421 353 624 292 12;
#X text 247 187 IMPORTANT: don't edit this subpatch manually \, otherwise
you might mess up the ordering., f 47;
#X obj 390 128 iemguts/canvasdelete;
#X text 233 128 For "delete" message:;
#X obj 144 129 symbol \$1;
#X obj 144 104 loadbang;
#X obj 144 183 s pd-\$0-send;
#N canvas 413 161 450 162 \$0-send 0;
#X obj 16 48 inlet~;
#X obj 10 10 send~ ;
#X connect 0 0 1 0;
#X restore 45 189 pd \$0-send;
#X msg 144 157 delete 1 \, obj 10 10 send~ \$1 \, connect 0 0 1 0;
#X obj 46 33 inlet~ fwd;
#X obj 113 61 route set;
#X text 280 28 by Christof Ressi \, Feb 2022;
#X obj 351 57 bng 15 250 50 0 empty empty empty 17 7 0 10 #fcfcfc #000000
#000000;
#N canvas 449 70 450 300 source-page 0;
#X obj 37 37 inlet;
#X obj 37 117 pdcontrol;
#X msg 37 62 browse https://github.com/pure-data/pure-data/issues/1567#issuecomment-1026990681
;
#X connect 0 0 2 0;
#X connect 2 0 1 0;
#X restore 351 77 pd source-page;
#X connect 3 0 7 0;
#X connect 4 0 3 0;
#X connect 7 0 5 0;
#X connect 8 0 6 0;
#X connect 8 1 9 0;
#X connect 9 0 3 0;
#X connect 11 0 12 0;
