#N canvas 563 86 462 328 12;
#X declare -path mmb;
#X obj 43 31 inlet~ freq;
#X obj 133 31 inlet~ ffreq;
#X obj 230 31 inlet~ Q;
#X obj 44 101 bl-saw.mmb~;
#X obj 132 101 multimode.mmb~;
#X obj 298 31 inlet~ type;
#X obj 45 202 biquad.mmb~;
#X obj 44 263 outlet~;
#X obj 102 263 declare -path mmb;
#X connect 0 0 3 0;
#X connect 1 0 4 0;
#X connect 2 0 4 1;
#X connect 3 0 6 0;
#X connect 4 0 6 1;
#X connect 4 1 6 2;
#X connect 4 2 6 3;
#X connect 4 3 6 4;
#X connect 4 4 6 5;
#X connect 5 0 4 2;
#X connect 6 0 7 0;
